<svg width="25" height="25" viewBox="0 0 25 25" fill="none" xmlns="http://www.w3.org/2000/svg">
<path d="M12.5 11.9792C11.8093 11.9792 11.147 11.7048 10.6586 11.2164C10.1702 10.728 9.89584 10.0657 9.89584 9.37499C9.89584 8.68433 10.1702 8.02195 10.6586 7.53357C11.147 7.04519 11.8093 6.77083 12.5 6.77083C13.1907 6.77083 13.8531 7.04519 14.3414 7.53357C14.8298 8.02195 15.1042 8.68433 15.1042 9.37499C15.1042 9.71698 15.0368 10.0556 14.9059 10.3716C14.7751 10.6875 14.5833 10.9746 14.3414 11.2164C14.0996 11.4582 13.8125 11.6501 13.4966 11.7809C13.1806 11.9118 12.842 11.9792 12.5 11.9792ZM12.5 2.08333C10.5661 2.08333 8.71148 2.85156 7.34402 4.21901C5.97657 5.58646 5.20834 7.44112 5.20834 9.37499C5.20834 14.8437 12.5 22.9167 12.5 22.9167C12.5 22.9167 19.7917 14.8437 19.7917 9.37499C19.7917 7.44112 19.0234 5.58646 17.656 4.21901C16.2885 2.85156 14.4339 2.08333 12.5 2.08333Z" fill="#1D2570"/>
</svg>