<svg width="25" height="25" viewBox="0 0 25 25" fill="none" xmlns="http://www.w3.org/2000/svg">
<path d="M7.29167 15.625H9.37501C9.37501 16.75 10.8021 17.7083 12.5 17.7083C14.1979 17.7083 15.625 16.75 15.625 15.625C15.625 14.4792 14.5417 14.0625 12.25 13.5104C10.0417 12.9583 7.29167 12.2708 7.29167 9.375C7.29167 7.51042 8.82292 5.92708 10.9375 5.39583V3.125H14.0625V5.39583C16.1771 5.92708 17.7083 7.51042 17.7083 9.375H15.625C15.625 8.25 14.1979 7.29167 12.5 7.29167C10.8021 7.29167 9.37501 8.25 9.37501 9.375C9.37501 10.5208 10.4583 10.9375 12.75 11.4896C14.9583 12.0417 17.7083 12.7292 17.7083 15.625C17.7083 17.4896 16.1771 19.0729 14.0625 19.6042V21.875H10.9375V19.6042C8.82292 19.0729 7.29167 17.4896 7.29167 15.625Z" fill="#1D2570"/>
</svg>