<svg width="25" height="25" viewBox="0 0 25 25" fill="none" xmlns="http://www.w3.org/2000/svg">
<path d="M12.5 2.34375C6.9 2.34375 2.34375 6.9 2.34375 12.5C2.34375 18.1 6.9 22.6562 12.5 22.6562C18.1 22.6562 22.6562 18.1 22.6562 12.5C22.6562 6.9 18.1 2.34375 12.5 2.34375ZM11.6211 3.95547C11.6523 3.95156 11.6867 3.95781 11.7188 3.95547V4.6875H13.2812V3.95469C15.2802 4.13352 17.1528 5.00895 18.5719 6.42807C19.991 7.8472 20.8665 9.71979 21.0453 11.7188H20.3125V13.2812H21.0453C20.8665 15.2802 19.991 17.1528 18.5719 18.5719C17.1528 19.991 15.2802 20.8665 13.2812 21.0453V20.3125H11.7188V21.0453C9.71979 20.8665 7.8472 19.991 6.42807 18.5719C5.00895 17.1528 4.13352 15.2802 3.95469 13.2812H4.6875V11.7188H3.95469C4.32344 7.62266 7.53828 4.36719 11.6211 3.95469V3.95547ZM17.2617 7.73906L10.6211 10.6203L7.73828 17.2609L14.3789 14.3797L17.2617 7.73906ZM12.5 11.3281C13.125 11.3281 13.6719 11.875 13.6719 12.5C13.6719 13.125 13.125 13.6719 12.5 13.6719C11.875 13.6719 11.3281 13.125 11.3281 12.5C11.3281 11.875 11.875 11.3281 12.5 11.3281Z" fill="#1D2570"/>
</svg>