<svg width="31" height="25" viewBox="0 0 31 25" fill="none" xmlns="http://www.w3.org/2000/svg">
<path d="M3.8333 24.1666C3.03121 24.1666 2.34434 23.8808 1.77267 23.3091C1.201 22.7374 0.915656 22.051 0.916628 21.2499V3.74992C0.916628 2.94784 1.20246 2.26096 1.77413 1.6893C2.3458 1.11763 3.03218 0.832282 3.8333 0.833254H27.1666C27.9687 0.833254 28.6556 1.11909 29.2273 1.69075C29.7989 2.26242 30.0843 2.94881 30.0833 3.74992V21.2499C30.0833 22.052 29.7975 22.7389 29.2258 23.3105C28.6541 23.8822 27.9677 24.1676 27.1666 24.1666H3.8333ZM15.5 13.703C15.6215 13.703 15.7493 13.6846 15.8835 13.6476C16.0177 13.6107 16.145 13.5562 16.2656 13.4843L26.5833 7.03117C26.7777 6.90964 26.9236 6.75749 27.0208 6.57471C27.118 6.39193 27.1666 6.19166 27.1666 5.97388C27.1666 5.48777 26.96 5.12319 26.5468 4.88013C26.1336 4.63707 25.7083 4.64923 25.2708 4.91659L15.5 11.0416L5.72913 4.91659C5.29163 4.64923 4.86628 4.64339 4.45309 4.89909C4.03989 5.15478 3.8333 5.51305 3.8333 5.97388C3.8333 6.21694 3.88191 6.42985 3.97913 6.61263C4.07635 6.79541 4.22218 6.93492 4.41663 7.03117L14.7343 13.4843C14.8559 13.5572 14.9837 13.6121 15.1179 13.6491C15.252 13.686 15.3794 13.704 15.5 13.703Z" fill="#1D2570"/>
</svg>