<svg width="25" height="31" viewBox="0 0 25 31" fill="none" xmlns="http://www.w3.org/2000/svg">
<path d="M12.5 30.0834C8.58685 26.7536 5.66435 23.6609 3.73254 20.8055C1.80074 17.9501 0.834346 15.3066 0.833374 12.8751C0.833374 9.22925 2.00636 6.32473 4.35233 4.16154C6.6983 1.99835 9.41421 0.916748 12.5 0.916748C15.5868 0.916748 18.3032 1.99835 20.6492 4.16154C22.9952 6.32473 24.1677 9.22925 24.1667 12.8751C24.1667 15.3056 23.2003 17.9491 21.2675 20.8055C19.3348 23.6619 16.4123 26.7545 12.5 30.0834ZM8.12504 16.9584H11.0417V12.948H13.9584V16.9584H16.875V10.0313L12.5 7.11466L8.12504 10.0313V16.9584Z" fill="#1D2570"/>
</svg>