<svg width="27" height="27" viewBox="0 0 27 27" fill="none" xmlns="http://www.w3.org/2000/svg">
<path d="M23.7083 13.427C23.7083 10.5833 22.7176 8.17117 20.7363 6.19075C18.7549 4.21034 16.3428 3.21964 13.5 3.21867V0.302002C15.3229 0.302002 17.0306 0.648599 18.6231 1.34179C20.2156 2.03499 21.601 2.97075 22.7794 4.14909C23.9577 5.32742 24.8935 6.71284 25.5867 8.30534C26.2799 9.89784 26.626 11.6051 26.625 13.427H23.7083ZM17.875 13.427C17.875 12.2117 17.4497 11.1787 16.599 10.328C15.7483 9.47735 14.7153 9.052 13.5 9.052V6.13533C15.5174 6.13533 17.2372 6.84652 18.6596 8.26888C20.0819 9.69124 20.7926 11.4106 20.7917 13.427H17.875ZM25.0938 26.6249C21.9583 26.6249 18.9017 25.9259 15.9238 24.5278C12.9458 23.1298 10.3087 21.2826 8.01229 18.9862C5.7159 16.6898 3.86868 14.0526 2.47063 11.0747C1.07257 8.09679 0.374029 5.04061 0.375001 1.90617C0.375001 1.46867 0.520834 1.10409 0.812501 0.812419C1.10417 0.520752 1.46875 0.374919 1.90625 0.374919H7.8125C8.15278 0.374919 8.4566 0.484293 8.72396 0.703043C8.99132 0.921793 9.14931 1.20131 9.19792 1.54159L10.1458 6.64575C10.1944 6.98603 10.1881 7.29617 10.1269 7.57617C10.0656 7.85617 9.92611 8.10506 9.70833 8.32284L6.20833 11.8958C7.22917 13.6458 8.50521 15.2864 10.0365 16.8176C11.5677 18.3489 13.2569 19.6735 15.1042 20.7916L18.5313 17.3645C18.75 17.1458 19.0358 16.9819 19.3888 16.873C19.7417 16.7642 20.0878 16.7335 20.4271 16.7812L25.4583 17.802C25.7986 17.8749 26.0781 18.0392 26.2969 18.2949C26.5156 18.5506 26.625 18.8481 26.625 19.1874V25.0937C26.625 25.5312 26.4792 25.8958 26.1875 26.1874C25.8958 26.4791 25.5313 26.6249 25.0938 26.6249Z" fill="#1D2570"/>
</svg>