<svg width="35" height="35" viewBox="0 0 35 35" fill="none" xmlns="http://www.w3.org/2000/svg">
<path d="M17.4855 2.91666C9.4355 2.91666 2.91675 9.45 2.91675 17.5C2.91675 25.55 9.4355 32.0833 17.4855 32.0833C25.5501 32.0833 32.0834 25.55 32.0834 17.5C32.0834 9.45 25.5501 2.91666 17.4855 2.91666ZM17.5001 29.1667C11.0542 29.1667 5.83341 23.9458 5.83341 17.5C5.83341 11.0542 11.0542 5.83333 17.5001 5.83333C23.9459 5.83333 29.1667 11.0542 29.1667 17.5C29.1667 23.9458 23.9459 29.1667 17.5001 29.1667ZM18.2292 10.2083H16.0417V18.9583L23.698 23.5521L24.7917 21.7583L18.2292 17.8646V10.2083Z" fill="#1D2570"/>
</svg>