<svg width="35" height="35" viewBox="0 0 35 35" fill="none" xmlns="http://www.w3.org/2000/svg">
<path d="M16.5 12.0312C15.4184 12.0312 14.3611 12.352 13.4617 12.9529C12.5624 13.5538 11.8615 14.4079 11.4475 15.4072C11.0336 16.4065 10.9253 17.5061 11.1363 18.5669C11.3473 19.6277 11.8682 20.6022 12.633 21.367C13.3978 22.1318 14.3723 22.6527 15.4331 22.8637C16.4939 23.0747 17.5935 22.9664 18.5928 22.5525C19.5921 22.1385 20.4462 21.4376 21.0471 20.5383C21.648 19.6389 21.9688 18.5816 21.9688 17.5C21.9688 16.0496 21.3926 14.6586 20.367 13.633C19.3414 12.6074 17.9504 12.0312 16.5 12.0312ZM16.5 20.7812C15.851 20.7812 15.2166 20.5888 14.677 20.2283C14.1374 19.8677 13.7169 19.3553 13.4685 18.7557C13.2202 18.1561 13.1552 17.4964 13.2818 16.8599C13.4084 16.2234 13.7209 15.6387 14.1798 15.1798C14.6387 14.7209 15.2234 14.4084 15.8599 14.2818C16.4964 14.1552 17.1561 14.2202 17.7557 14.4685C18.3552 14.7169 18.8677 15.1374 19.2283 15.677C19.5888 16.2166 19.7812 16.851 19.7812 17.5C19.7812 18.3702 19.4355 19.2048 18.8202 19.8202C18.2048 20.4355 17.3702 20.7812 16.5 20.7812ZM31.8125 7.65625H1.1875C0.897419 7.65625 0.61922 7.77148 0.414102 7.9766C0.208984 8.18172 0.09375 8.45992 0.09375 8.75V26.25C0.09375 26.5401 0.208984 26.8183 0.414102 27.0234C0.61922 27.2285 0.897419 27.3438 1.1875 27.3438H31.8125C32.1026 27.3438 32.3808 27.2285 32.5859 27.0234C32.791 26.8183 32.9062 26.5401 32.9062 26.25V8.75C32.9062 8.45992 32.791 8.18172 32.5859 7.9766C32.3808 7.77148 32.1026 7.65625 31.8125 7.65625ZM25.4756 25.1562H7.52441C7.15719 23.9143 6.48509 22.784 5.56931 21.8682C4.65354 20.9524 3.5232 20.2803 2.28125 19.9131V15.0869C3.5232 14.7197 4.65354 14.0476 5.56931 13.1318C6.48509 12.216 7.15719 11.0857 7.52441 9.84375H25.4756C25.8428 11.0857 26.5149 12.216 27.4307 13.1318C28.3465 14.0476 29.4768 14.7197 30.7188 15.0869V19.9131C29.4768 20.2803 28.3465 20.9524 27.4307 21.8682C26.5149 22.784 25.8428 23.9143 25.4756 25.1562ZM30.7188 12.7654C29.4068 12.2013 28.3612 11.1557 27.7971 9.84375H30.7188V12.7654ZM5.20293 9.84375C4.63882 11.1557 3.59315 12.2013 2.28125 12.7654V9.84375H5.20293ZM2.28125 22.2346C3.59315 22.7987 4.63882 23.8443 5.20293 25.1562H2.28125V22.2346ZM27.7971 25.1562C28.3612 23.8443 29.4068 22.7987 30.7188 22.2346V25.1562H27.7971Z" fill="#1D2570"/>
</svg>