<svg width="35" height="35" viewBox="0 0 35 35" fill="none" xmlns="http://www.w3.org/2000/svg">
<path d="M17.5 26.9792L13.125 24.7917M13.125 24.7917L4.375 29.1667V10.2083L13.125 5.83333M13.125 24.7917V5.83333M13.125 5.83333L21.875 10.2083M21.875 10.2083L30.625 5.83333V16.7708M21.875 10.2083V18.2292M27.7083 26.25V26.2646M30.8015 29.3431C31.4134 28.7313 31.8303 27.9518 31.9992 27.1031C32.1681 26.2544 32.0815 25.3746 31.7504 24.5751C31.4193 23.7756 30.8586 23.0923 30.1391 22.6115C29.4196 22.1307 28.5737 21.8741 27.7083 21.8741C26.843 21.8741 25.9971 22.1307 25.2776 22.6115C24.5581 23.0923 23.9973 23.7756 23.6662 24.5751C23.3351 25.3746 23.2486 26.2544 23.4175 27.1031C23.5864 27.9518 24.0032 28.7313 24.6152 29.3431C25.2248 29.9542 26.2558 30.8671 27.7083 32.0833C29.241 30.7854 30.2735 29.8725 30.8015 29.3431Z" stroke="#1D2570" stroke-width="3.33333" stroke-linecap="round" stroke-linejoin="round"/>
</svg>