<svg width="250" height="250" viewBox="0 0 250 250" fill="none" xmlns="http://www.w3.org/2000/svg">
<path d="M0 183.594H250V250H0V183.594Z" fill="#42ADE2"/>
<path d="M0 204.688C0 204.688 14.0625 205.078 29.2969 210.938C42.9688 216.406 66.4062 225 78.125 225C80.8594 225 87.5 223.047 87.5 223.047C87.5 223.047 123.047 233.203 136.719 232.422C140.234 232.422 147.266 228.906 147.266 228.906C147.266 228.906 151.562 229.297 152.734 228.906C157.031 228.125 161.719 224.609 165.625 223.828C169.141 223.047 177.344 223.438 180.469 222.656C183.984 221.875 190.625 217.187 190.625 217.187C190.625 217.187 200 217.188 203.125 216.797C206.25 216.406 214.062 214.844 214.062 214.844C214.062 214.844 224.219 216.016 227.734 216.016C233.203 216.016 249.609 213.672 249.609 213.672V183.594H0V204.688Z" fill="#2B95BF"/>
<path d="M0 110.547C0 110.547 14.0625 109.375 29.2969 89.4532C42.9688 71.4845 66.4062 41.0157 78.125 40.6251C80.8594 40.6251 87.5 48.047 87.5 48.047C87.5 48.047 123.047 13.2814 136.328 15.6251C139.844 16.4064 146.875 28.1251 146.875 28.1251C146.875 28.1251 151.172 27.3439 152.344 28.1251C156.641 30.4689 161.328 42.5782 165.234 45.3126C168.75 47.6564 176.953 46.4845 180.078 49.6095C183.594 52.7345 190.234 67.9689 190.234 67.9689C190.234 67.9689 199.609 68.3595 202.734 69.5314C205.859 70.7032 213.672 76.9532 213.672 76.9532C213.672 76.9532 223.828 73.047 227.344 73.4376C232.812 73.8282 249.219 81.6407 249.219 81.6407V183.594H0V110.547Z" fill="#77994F"/>
<path d="M219.922 126.563L191.016 67.5781C199.219 88.2812 194.922 121.875 219.922 126.563ZM214.453 76.5625C214.453 76.5625 217.969 99.6094 236.328 105.859L214.453 76.5625ZM73.8281 183.594L62.5 142.188L76.9531 148.047L65.625 118.359H83.5937L74.2188 87.5L85.9375 82.8125L93.75 67.9687L87.1094 48.0469L110.547 93.75L145.703 139.844L174.219 167.188L203.516 174.609L219.922 183.594H73.8281Z" fill="#8BCE4A"/>
<path d="M147.266 28.125L150.781 58.5938L160.547 78.125H153.906L175.781 108.594L161.328 102.344L172.656 135.156L194.531 151.562L186.328 157.812L210.937 170.703L226.172 183.594H250V172.656L223.828 159.375L217.578 153.125L212.891 157.812L191.016 119.922L169.141 69.5312L160.156 55.8594L147.266 28.125Z" fill="#8BCE4A"/>
<path d="M164.844 183.594H0V157.812L164.844 183.594Z" fill="#DBF763"/>
<path d="M164.844 183.594H0V195.703L164.844 183.594Z" fill="#1D8299"/>
<path d="M19.5313 191.016C26.1719 189.844 31.6406 194.531 38.2813 191.016C45.7031 187.5 50.7813 192.578 57.8125 193.75C51.1719 194.922 45.7031 190.234 39.0625 193.75C31.6406 197.266 26.5625 192.578 19.5313 191.016ZM205.469 206.25C212.109 205.078 217.578 209.766 224.219 206.25C231.641 202.734 236.719 207.813 243.75 208.984C237.109 210.156 231.641 205.469 225 208.984C217.578 212.5 212.5 207.812 205.469 206.25ZM59.7656 206.25C66.0156 205.078 71.0937 207.813 77.3437 208.594C84.375 209.375 89.8438 207.031 96.4844 205.078C108.594 200.781 117.578 208.984 128.906 211.328C122.656 212.5 117.578 209.766 111.328 208.984C104.297 208.203 98.8281 210.547 92.1875 212.5C80.0781 216.797 71.0938 208.594 59.7656 206.25ZM136.328 223.828C142.578 222.656 147.656 225.391 153.906 226.172C160.938 226.953 166.406 224.609 173.047 222.656C185.156 218.359 194.141 226.562 205.469 228.906C199.219 230.469 194.141 227.344 187.891 226.562C180.859 225.781 175.391 228.125 168.75 230.078C156.641 234.375 147.656 226.172 136.328 223.828ZM150.781 190.625C160.156 189.453 168.359 196.094 177.734 191.406C188.281 186.719 195.703 193.359 205.469 194.922C196.094 196.094 187.891 189.453 178.516 194.141C168.359 198.828 160.938 191.797 150.781 190.625ZM187.891 238.672C197.266 237.5 205.469 244.141 214.844 239.453C225.391 234.766 232.812 241.406 242.578 242.969C233.203 244.141 225 237.5 215.625 242.188C205.469 246.875 198.047 239.844 187.891 238.672ZM14.0625 235.547C23.4375 234.375 31.6406 241.016 41.0156 236.328C51.1719 231.641 58.9844 238.281 68.75 239.844C59.375 241.016 51.1719 234.375 41.7969 239.063C31.6406 243.75 24.2188 237.109 14.0625 235.547Z" fill="#B4D7EE"/>
</svg>