<svg width="33" height="21" viewBox="0 0 33 21" fill="none" xmlns="http://www.w3.org/2000/svg">
<path d="M16.5 5.03125C15.4184 5.03125 14.3611 5.35199 13.4617 5.9529C12.5624 6.55381 11.8615 7.40792 11.4475 8.4072C11.0336 9.40648 10.9253 10.5061 11.1363 11.5669C11.3473 12.6277 11.8682 13.6022 12.633 14.367C13.3978 15.1318 14.3723 15.6527 15.4331 15.8637C16.4939 16.0747 17.5935 15.9664 18.5928 15.5525C19.5921 15.1385 20.4462 14.4376 21.0471 13.5383C21.648 12.6389 21.9688 11.5816 21.9688 10.5C21.9688 9.0496 21.3926 7.6586 20.367 6.63301C19.3414 5.60742 17.9504 5.03125 16.5 5.03125ZM16.5 13.7812C15.851 13.7812 15.2166 13.5888 14.677 13.2283C14.1374 12.8677 13.7169 12.3553 13.4685 11.7557C13.2202 11.1561 13.1552 10.4964 13.2818 9.85986C13.4084 9.22336 13.7209 8.6387 14.1798 8.17981C14.6387 7.72091 15.2234 7.40841 15.8599 7.2818C16.4964 7.15519 17.1561 7.22017 17.7557 7.46852C18.3552 7.71687 18.8677 8.13744 19.2283 8.67704C19.5888 9.21663 19.7812 9.85103 19.7812 10.5C19.7812 11.3702 19.4355 12.2048 18.8202 12.8202C18.2048 13.4355 17.3702 13.7812 16.5 13.7812ZM31.8125 0.65625H1.1875C0.897419 0.65625 0.61922 0.771484 0.414102 0.976602C0.208984 1.18172 0.09375 1.45992 0.09375 1.75V19.25C0.09375 19.5401 0.208984 19.8183 0.414102 20.0234C0.61922 20.2285 0.897419 20.3438 1.1875 20.3438H31.8125C32.1026 20.3438 32.3808 20.2285 32.5859 20.0234C32.791 19.8183 32.9062 19.5401 32.9062 19.25V1.75C32.9062 1.45992 32.791 1.18172 32.5859 0.976602C32.3808 0.771484 32.1026 0.65625 31.8125 0.65625ZM25.4756 18.1562H7.52441C7.15719 16.9143 6.48509 15.784 5.56931 14.8682C4.65354 13.9524 3.5232 13.2803 2.28125 12.9131V8.08691C3.5232 7.71969 4.65354 7.04759 5.56931 6.13181C6.48509 5.21604 7.15719 4.0857 7.52441 2.84375H25.4756C25.8428 4.0857 26.5149 5.21604 27.4307 6.13181C28.3465 7.04759 29.4768 7.71969 30.7188 8.08691V12.9131C29.4768 13.2803 28.3465 13.9524 27.4307 14.8682C26.5149 15.784 25.8428 16.9143 25.4756 18.1562ZM30.7188 5.76543C29.4068 5.20132 28.3612 4.15565 27.7971 2.84375H30.7188V5.76543ZM5.20293 2.84375C4.63882 4.15565 3.59315 5.20132 2.28125 5.76543V2.84375H5.20293ZM2.28125 15.2346C3.59315 15.7987 4.63882 16.8443 5.20293 18.1562H2.28125V15.2346ZM27.7971 18.1562C28.3612 16.8443 29.4068 15.7987 30.7188 15.2346V18.1562H27.7971Z" fill="#1D2570"/>
</svg>