<svg width="150" height="150" viewBox="0 0 150 150" fill="none" xmlns="http://www.w3.org/2000/svg">
<g clip-path="url(#clip0_301_851)">
<path d="M131.719 89.0625H18.2813L4.6875 150H145.312L131.719 89.0625Z" fill="#ED4C5C"/>
<path d="M23.9062 150H55.3125L59.2969 89.0625H32.1094L23.9062 150Z" fill="#F2F2F2"/>
<path d="M4.6875 89.0625C4.6875 94.4531 10.7813 98.9063 18.2813 98.9063C25.7813 98.9063 31.875 94.4531 31.875 89.0625H4.6875Z" fill="#C94747"/>
<path d="M32.1094 89.0625C32.1094 94.4531 38.2031 98.9063 45.7031 98.9063C53.2031 98.9063 59.2969 94.4531 59.2969 89.0625H32.1094Z" fill="#D0D0D0"/>
<path d="M126.094 150H94.6875L90.7031 89.0625H117.891L126.094 150Z" fill="#F2F2F2"/>
<path d="M145.312 89.0625C145.312 94.4531 139.219 98.9063 131.719 98.9063C124.219 98.9063 118.125 94.4531 118.125 89.0625H145.312Z" fill="#C94747"/>
<path d="M117.891 89.0625C117.891 94.4531 111.797 98.9063 104.297 98.9063C96.7969 98.9063 90.7031 94.4531 90.7031 89.0625H117.891Z" fill="#D0D0D0"/>
<path d="M75 28.125C72.1875 52.5 41.7188 89.0625 4.6875 89.0625H145.312C108.281 89.0625 77.8125 52.5 75 28.125Z" fill="#ED4C5C"/>
<path d="M32.1094 89.0625H59.2969C59.2969 89.0625 75 70.5469 75 28.125C75 28.125 59.2969 89.0625 32.1094 89.0625ZM75 28.125C75 70.5469 90.7031 89.0625 90.7031 89.0625H117.891C90.7031 89.0625 75 28.125 75 28.125Z" fill="white"/>
<path d="M75 89.0625H59.2969C59.2969 94.4531 67.2656 98.9063 75 98.9063C82.5 98.9063 90.7031 94.4531 90.7031 89.0625H75Z" fill="#C94747"/>
<path d="M75 98.6719L50.1562 150H100.078L75 98.6719Z" fill="#3E4347"/>
<path d="M50.1562 150C50.1562 150 44.5312 150 40.5469 138.516C40.5469 138.516 50.1562 137.344 75 98.9063C75 98.6719 62.5781 150 50.1562 150ZM99.8437 150C99.8437 150 105.469 150 109.453 138.516C109.453 138.516 99.8437 137.344 75 98.9063C75 98.6719 87.4219 150 99.8437 150Z" fill="#C94747"/>
<path d="M73.125 11.4844H76.875V34.2188H73.125V11.4844Z" fill="#94989B"/>
<path d="M74.0625 11.4844H75.9375V34.2188H74.0625V11.4844Z" fill="#D0D0D0"/>
<path d="M75 15.9375C76.9416 15.9375 78.5156 14.4684 78.5156 12.6563C78.5156 10.8441 76.9416 9.375 75 9.375C73.0584 9.375 71.4844 10.8441 71.4844 12.6563C71.4844 14.4684 73.0584 15.9375 75 15.9375Z" fill="#ED4C5C"/>
<path d="M75 13.8281C73.3594 13.8281 72.1875 12.8906 71.4844 11.7188C71.25 11.9531 71.25 12.4219 71.25 12.6563C71.25 14.5313 72.8906 15.9375 74.7656 15.9375C76.6406 15.9375 78.2813 14.5313 78.2813 12.6563C78.2813 12.4219 78.2812 11.9531 78.0469 11.7188C78.0469 12.8906 76.6406 13.8281 75 13.8281Z" fill="#C94747"/>
<path d="M75.9375 12.4219C76.4553 12.4219 76.875 12.0021 76.875 11.4844C76.875 10.9666 76.4553 10.5469 75.9375 10.5469C75.4197 10.5469 75 10.9666 75 11.4844C75 12.0021 75.4197 12.4219 75.9375 12.4219Z" fill="#FFC7CE"/>
<path d="M76.875 16.6406V26.25C83.6719 18.9844 90.4688 28.8281 97.0313 21.5625C90.4688 25.5469 83.6719 12.4219 76.875 16.6406Z" fill="#ED4C5C"/>
</g>
<defs>
<clipPath id="clip0_301_851">
<rect width="150" height="150" fill="white"/>
</clipPath>
</defs>
</svg>