<svg width="150" height="150" viewBox="0 0 150 150" fill="none" xmlns="http://www.w3.org/2000/svg">
<g clip-path="url(#clip0_18_165)">
<path d="M70.4875 147.917L98.9583 51.2166C98.9583 51.2166 104.875 54.3874 109.808 58.0374C111.113 58.9999 118.046 69.6624 119.442 70.7041C126.783 76.1832 134.242 82.5416 135.242 83.8999C137.154 86.4999 150 150 150 150L70.4875 147.917Z" fill="#292F33"/>
<path d="M39.5833 63.5417L70.05 25.1583L75 9.375L97.3875 36.3917L101.433 41.275C103.125 44.5333 108.333 63.5417 108.333 63.5417L113.542 83.3333L136.45 125.225L146.179 144.962L16.6667 145.833L39.5833 63.5417Z" fill="#4B545D"/>
<path d="M100 141.667H91.6667L83.3333 76.0417L78.1917 68.5542L63.2833 46.7458L62.8917 40.625L76.5875 59.1833L87.5 73.9667L97.45 104.642L100 112.5L107.462 125.558L116.667 141.667H100ZM49.7542 68.2667L57.9417 92.8375L62.5 108.333L50.8667 140.104L36.0667 139.846C36.0667 139.846 54.1667 110.938 54.1667 108.333C54.1667 107.833 51.5625 97.1375 51.5625 97.1375L47.0042 78.2583L45.8333 71.875L49.7542 68.2667Z" fill="#292F33"/>
<path d="M0 150C0 150 1.60001 133.979 3.55833 120.487C3.55833 120.487 4.16667 104.3 8.85417 98.9583C13.225 93.9792 19.7875 91.1458 20.6583 90.7833L25.7792 76.1042L33.5292 54.1667L43.6208 45.3125L51.3042 38.5375L53.4083 35.95L75 9.375L65.4625 39.7875L63.2792 46.7458L49.7542 68.2667L47.0042 78.2542L41.0125 87.7583L37.7875 99.0125L33.3333 114.583L41.6667 141.667L0 150Z" fill="#292F33"/>
<path d="M9.55 135.158C15.1542 135.158 30.2083 137.5 32.2917 137.5C40.625 137.5 50 130.208 54.1667 130.208C58.3333 130.208 69.1417 137.5 77.475 137.5C84.5083 137.5 87.5 134.117 97.1375 134.117C100.254 134.117 114.204 137.746 117.188 137.371C124.783 136.421 128.688 133.333 130.6 133.333C141.667 133.333 150 150 150 150H0C0 150 3.64584 135.158 9.55 135.158Z" fill="#5C903F"/>
</g>
<defs>
<clipPath id="clip0_18_165">
<rect width="150" height="150" fill="white" transform="matrix(-1 0 0 1 150 0)"/>
</clipPath>
</defs>
</svg>