<svg width="250" height="250" viewBox="0 0 250 250" fill="none" xmlns="http://www.w3.org/2000/svg">
<path d="M119.941 28.4765C119.941 28.4765 123.457 11.4258 127.207 10.4297C130.977 9.43357 147.402 12.9883 155.469 17.2656C166.738 23.2226 173.691 33.164 175.352 45.2734C177.109 58.2422 172.09 69.1015 172.09 69.1015C172.09 69.1015 183.867 62.0898 197.91 63.3398C211.953 64.5898 222.48 71.3672 226.504 76.3867C230.508 81.4062 236.035 86.914 235.273 89.4336C234.512 91.9336 219.98 100.977 220.723 103.223C221.484 105.488 238.535 104.219 240.273 107.227C242.031 110.234 245.547 129.551 232.754 143.34C219.961 157.129 207.422 159.141 207.422 159.141C207.422 159.141 220.078 171.035 220.742 187.285C221.289 200.586 217.715 208.535 210.449 211.309C203.184 214.062 189.629 205.293 189.629 205.293C189.629 205.293 201.406 226.348 196.152 229.609C190.879 232.871 188.281 227.051 186.113 227.598C184.336 228.047 187.363 232.363 183.359 236.133C179.355 239.902 162.051 242.402 146.758 234.121C131.465 225.84 126.699 212.812 126.699 212.812C126.699 212.812 122.578 228.633 103.77 236.66C84.9609 244.688 71.2695 234.863 68.7695 233.359C66.2695 231.855 67.2656 219.824 67.7734 217.812C68.2813 215.801 70.5274 211.035 69.0234 210.039C67.5195 209.043 62.5 216.055 58.9844 218.32C55.4688 220.586 50.957 223.086 46.4453 219.316C41.9336 215.547 31.1523 203.008 33.9063 186.211C36.6602 169.414 46.1914 159.883 46.1914 159.883C46.1914 159.883 26.1328 158.125 16.3477 141.074C6.5625 124.023 7.85157 106.973 9.60938 104.707C11.3672 102.441 26.4063 102.207 26.4063 102.207C26.4063 102.207 12.1094 93.9258 13.6133 87.4219C15.1172 80.8984 22.3828 85.9179 24.3945 83.9062C26.4063 81.8945 19.2773 74.2773 24.9023 70.293C29.1211 67.3047 36.543 61.7383 50.7227 60.5859C65.6641 59.3554 76.0547 66.8554 76.0547 66.8554C76.0547 66.8554 69.668 56.0547 72.3047 43.789C74.3945 34.082 81.582 25.7422 88.3399 20.9765C95.0977 16.2109 104.141 12.4414 108.145 12.4414C112.148 12.4414 119.941 28.4765 119.941 28.4765Z" fill="#FFBCD8"/>
<path d="M155.625 90.5665C158.32 93.6719 164.004 89.4337 167.734 83.1055C170.586 78.2813 173.848 70.0391 172.695 69.0235C171.543 68.0079 162.656 74.9219 159.648 78.3399C156.66 81.7774 153.496 88.1055 155.625 90.5665ZM170.742 151.035C170.02 155.645 181.504 158.906 187.617 159.629C193.418 160.313 207.402 161.094 207.441 159.121C207.5 157.149 196.406 149.473 187.617 147.617C179.902 145.996 171.367 147.109 170.742 151.035ZM127.461 180.449C123.535 180.215 122.07 189.356 122.793 196.387C123.516 203.418 125.02 212.598 126.699 212.774C128.379 212.949 131.289 202.793 132.012 193.281C132.461 187.305 130.977 180.664 127.461 180.449ZM46.2109 159.883C46.4844 161.191 60.0391 161.191 67.2852 159.121C74.5313 157.051 79.082 152.813 78.2617 149.707C77.4414 146.602 68.3398 147.481 63.2422 149.395C56.6211 151.875 45.957 158.594 46.2109 159.883ZM76.8164 67.5782C75.2734 68.711 80.2344 78.1446 83.5547 82.1876C86.875 86.2305 92.0508 90.6837 94.6289 89.5313C97.2266 88.3985 94.8438 80.2149 89.1406 74.7266C86.3867 72.0704 78.3789 66.4454 76.8164 67.5782Z" fill="#FCA2C8"/>
<path d="M153.125 89.8242C149.57 87.9883 138.418 103.027 125.41 102.5C112.402 101.973 99.0039 88.1836 96.6406 90.2929C94.2774 92.4023 103.77 107.637 98.8086 122.52C94.2774 136.133 78.3789 145.195 80.0977 148.555C81.6992 151.699 97.1094 145.176 109.922 151.641C124.863 159.199 122.012 178.496 127.266 178.633C132.52 178.77 130.195 161.797 143.164 153.613C155.645 145.723 168.965 151.855 170.098 147.832C171.406 143.105 154.473 137.266 150.938 121.113C146.816 102.461 156.816 91.7187 153.125 89.8242Z" fill="#BF0477"/>
<path d="M116.66 114.902C113.984 115.801 107.051 131.68 108.145 133.633C109.238 135.586 123.477 147.871 127.246 147.871C131.016 147.871 143.418 135.957 143.535 134.121C143.652 132.305 137.461 116.113 135.391 114.902C133.32 113.691 119.219 114.043 116.66 114.902Z" fill="#F2A159"/>
<path d="M134.375 105.625C131.309 108.477 131.016 113.945 134.727 117.012C138.691 120.274 144.082 119.043 146.367 115.859C148.379 113.086 148.574 108.809 145.215 105.801C143.145 103.945 138.262 102.012 134.375 105.625ZM139.219 136.152C138.691 141.27 143.008 145.156 147.324 145.059C152.969 144.942 155.059 140.234 155 137.031C154.902 132.715 151.914 129.004 147.148 129.18C142.383 129.356 139.668 131.836 139.219 136.152ZM127.051 145.313C123.262 145.41 119.297 147.949 119.375 153.516C119.453 158.633 123.438 160.918 127.402 160.918C131.367 160.918 134.629 158.086 134.629 153.242C134.629 148.399 131.113 145.215 127.051 145.313ZM102.891 128.828C97.2461 128.828 94.8633 132.715 94.8633 137.129C94.8633 141.543 98.125 144.746 103.34 144.531C107.832 144.356 110.625 140.547 110.215 136.328C109.766 131.738 107.656 128.828 102.891 128.828ZM106.758 104.57C103.516 107.715 103.398 113.125 106.855 115.957C109.551 118.184 114.355 118.965 117.52 115.684C120.703 112.422 120.156 107.754 117.344 105.02C114.531 102.266 109.941 101.484 106.758 104.57Z" fill="#FDD0B1"/>
</svg>