<svg width="250" height="250" viewBox="0 0 250 250" fill="none" xmlns="http://www.w3.org/2000/svg">
<g clip-path="url(#clip0_16_64)">
<path d="M181.27 151.23C175.977 127.852 160.488 114.238 133.906 109.629C130.801 109.082 127.48 108.809 124.004 108.809C115.195 108.809 106.387 110.527 99.2383 113.672C81.7774 121.309 70.1172 136.055 67.2266 154.121C65.4102 165.527 67.461 177.012 72.7539 187.109L178.867 182.285C182.8 172.417 183.637 161.586 181.27 151.23Z" fill="#FCC21B"/>
<path d="M232.52 156.387L206.113 147.383L229.18 126.113C229.805 125.547 230 124.668 229.727 123.867C229.453 123.086 228.73 122.539 227.891 122.5L195.176 120.508L205.801 89.8828C205.926 89.5194 205.949 89.1284 205.866 88.753C205.783 88.3776 205.598 88.0325 205.331 87.7557C205.064 87.4788 204.726 87.2811 204.354 87.1843C203.982 87.0874 203.591 87.0953 203.223 87.207L172.148 96.7187L175.977 63.789C176.055 62.9687 175.664 62.1484 174.941 61.7383C174.219 61.3086 173.32 61.3672 172.656 61.875L142.969 84.1601L126.465 50.8789C126.113 50.1562 125.488 49.668 124.57 49.707C123.77 49.7266 123.047 50.1953 122.715 50.918L108.066 83.0273L80.3711 59.2383C79.7461 58.7109 78.8672 58.5937 78.125 58.9453C77.3828 59.2969 76.9141 60.039 76.9336 60.8594L77.4609 94.4141L45.4688 83.5547C45.0904 83.4268 44.6834 83.4098 44.2957 83.5057C43.908 83.6016 43.5559 83.8064 43.2808 84.0959C43.0056 84.3854 42.8191 84.7475 42.743 85.1395C42.667 85.5316 42.7046 85.9372 42.8516 86.3086L55.2539 117.363L22.6563 120.918C21.875 121.016 21.1914 121.523 20.9375 122.266C20.6641 123.008 20.8399 123.828 21.3672 124.414L41.6602 145.977L15.7422 155.547C15.3912 155.678 15.0818 155.901 14.8458 156.192C14.6099 156.483 14.456 156.832 14.4002 157.202C14.3445 157.573 14.3888 157.952 14.5286 158.299C14.6684 158.647 14.8986 158.951 15.1953 159.18L52.6172 187.578C52.9883 187.852 53.418 188.008 53.8867 188.008H53.9844L63.6719 187.559C58.8086 176.758 57.0899 164.746 59.0039 152.832C62.3438 131.895 75.8008 114.844 95.8984 106.055C104.102 102.461 114.082 100.488 124.023 100.488C127.969 100.488 131.777 100.801 135.352 101.426C165.195 106.602 183.398 122.754 189.414 149.395C191.895 160.371 191.172 171.582 187.793 181.895L201.074 181.289C201.465 181.27 201.816 181.152 202.148 180.937L233.047 160.078C233.691 159.629 234.043 158.867 233.945 158.066C233.809 157.285 233.281 156.641 232.52 156.387Z" fill="#FCC21B"/>
<mask id="mask0_16_64" style="mask-type:luminance" maskUnits="userSpaceOnUse" x="0" y="0" width="250" height="250">
<path d="M249.98 226.367C249.98 239.355 239.355 249.98 226.367 249.98H23.6328C10.625 249.98 0 239.355 0 226.367V23.6328C0 10.6445 10.625 0 23.6328 0H226.367C239.355 0 249.98 10.6445 249.98 23.6328V226.367Z" fill="white"/>
</mask>
<g mask="url(#mask0_16_64)">
<path d="M-13.7109 166.875H264.434V264.199H-13.7109V166.875Z" fill="#40C0E7"/>
</g>
<mask id="mask1_16_64" style="mask-type:luminance" maskUnits="userSpaceOnUse" x="0" y="0" width="250" height="250">
<path d="M249.98 226.367C249.98 239.355 239.355 249.98 226.367 249.98H23.6328C10.625 249.98 0 239.355 0 226.367V23.6328C0 10.6445 10.625 0 23.6328 0H226.367C239.355 0 249.98 10.6445 249.98 23.6328V226.367Z" fill="white"/>
</mask>
<g mask="url(#mask1_16_64)">
<path d="M34.8633 186.836C32.5586 185.43 29.4141 185.078 26.7773 185.098C21.6797 185.117 11.5234 183.613 12.1289 191.68C12.3242 194.063 13.8086 195.84 16.1328 196.426C19.9805 197.383 24.5313 197.363 28.457 197.07C30.7227 196.895 33.6328 196.484 35.6641 195.371C38.9063 193.613 37.7344 188.731 35.1172 187.012C35.0391 186.953 34.9609 186.914 34.8633 186.836ZM65.0781 203.711C62.7734 202.305 59.6289 201.953 56.9922 201.953C51.8945 201.973 41.7383 200.469 42.3438 208.535C42.5195 210.938 44.0234 212.715 46.3477 213.281C50.2148 214.238 54.7461 214.219 58.6914 213.926C60.9375 213.77 63.8672 213.34 65.8789 212.246C69.1406 210.488 67.9492 205.605 65.3516 203.867C65.2539 203.828 65.1758 203.75 65.0781 203.711ZM237.461 183.34C235.156 181.934 232.012 181.582 229.375 181.602C224.277 181.621 214.121 180.117 214.727 188.184C214.902 190.586 216.406 192.344 218.73 192.93C222.578 193.887 227.129 193.867 231.055 193.574C233.32 193.398 236.211 192.988 238.262 191.875C241.504 190.117 240.332 185.234 237.734 183.516C237.637 183.457 237.539 183.418 237.461 183.34ZM216.152 201.934C213.848 200.527 210.703 200.176 208.066 200.195C202.969 200.215 192.812 198.711 193.418 206.777C193.594 209.16 195.098 210.938 197.402 211.523C201.27 212.481 205.801 212.461 209.746 212.168C211.992 211.992 214.902 211.582 216.934 210.469C220.195 208.711 219.004 203.828 216.387 202.109C216.316 202.042 216.237 201.983 216.152 201.934ZM84.1992 179.668C88.418 179.648 92.6367 179.59 96.8555 179.629C110.645 179.766 124.453 179.473 138.242 179.492C151.191 179.512 164.121 179.824 177.07 179.824C180.254 179.824 183.633 179.766 186.602 180.469C188.32 180.898 190.117 181.152 190.762 183.008C191.973 186.426 189.688 188.242 187.227 190.098C183.379 192.988 181.699 196.914 178.672 200.43C175.391 204.258 169.141 205.859 164.297 206.23C157.715 206.719 154.941 204.941 151.094 210.977C149.941 212.793 148.496 213.496 146.562 214.238C143.906 215.254 140.82 216.074 137.969 216.055C131.445 216.016 121.699 217.246 116.973 211.602C114.941 209.199 113.945 206.641 110.547 206.133C108.555 205.82 106.562 205.566 104.512 205.566C102.285 205.566 99.7656 205.918 97.5781 205.586C95.8398 205.313 94.082 204.336 92.832 203.105C91.5625 201.875 90.8399 199.707 90.1953 197.93C89.0234 194.707 85.2148 193.789 82.0898 193.477C80.2344 193.281 78.418 192.832 76.5234 192.852C74.5117 192.852 72.793 192.715 70.8789 192.129C67.7539 191.152 63.1836 187.617 64.3555 183.887C65.9961 178.652 72.2852 179.453 76.3672 179.551C78.9453 179.668 81.5625 179.688 84.1992 179.668Z" fill="white"/>
</g>
</g>
<defs>
<clipPath id="clip0_16_64">
<rect width="250" height="250" fill="white"/>
</clipPath>
</defs>
</svg>