<svg width="39" height="39" viewBox="0 0 39 39" fill="none" xmlns="http://www.w3.org/2000/svg">
<rect x="1" y="1" width="37" height="37" rx="11" fill="white"/>
<path d="M9.29167 29.7082H11.3333L23.9115 17.13L21.8698 15.0884L9.29167 27.6665V29.7082ZM30.1458 15.0155L23.9479 8.89046L25.9896 6.8488C26.5486 6.28977 27.2355 6.01025 28.0502 6.01025C28.8649 6.01025 29.5513 6.28977 30.1094 6.8488L32.151 8.89046C32.7101 9.44949 33.0017 10.1242 33.026 10.9146C33.0503 11.705 32.783 12.3793 32.224 12.9373L30.1458 15.0155ZM28.0313 17.1665L12.5729 32.6248H6.375V26.4269L21.8333 10.9686L28.0313 17.1665ZM22.8906 16.1092L21.8698 15.0884L23.9115 17.13L22.8906 16.1092Z" fill="#1D2570"/>
<rect x="1" y="1" width="37" height="37" rx="11" stroke="#1D2570" stroke-width="2"/>
</svg>