<svg width="82" height="82" viewBox="0 0 82 82" fill="none" xmlns="http://www.w3.org/2000/svg">
<circle cx="41" cy="40.9091" r="40.9091" fill="black" fill-opacity="0.25"/>
<path d="M24.5455 61.9096C23.2955 61.9096 22.225 61.4649 21.3341 60.5755C20.4447 59.6846 20 58.6141 20 57.3641V25.5459C20 24.2959 20.4447 23.2255 21.3341 22.3346C22.225 21.4452 23.2955 21.0005 24.5455 21.0005H45V25.5459H24.5455V57.3641H56.3636V36.9096H60.9091V57.3641C60.9091 58.6141 60.4644 59.6846 59.575 60.5755C58.6841 61.4649 57.6136 61.9096 56.3636 61.9096H24.5455ZM51.8182 34.6369V30.0914H47.2727V25.5459H51.8182V21.0005H56.3636V25.5459H60.9091V30.0914H56.3636V34.6369H51.8182ZM26.8182 52.8187H54.0909L45.5682 41.455L38.75 50.5459L33.6364 43.7278L26.8182 52.8187Z" fill="white"/>
</svg>