<svg width="150" height="150" viewBox="0 0 150 150" fill="none" xmlns="http://www.w3.org/2000/svg">
<g clip-path="url(#clip0_301_802)">
<path d="M75 104.917C135.675 104.917 150 124.35 150 133.333C150 142.317 142.538 150 133.333 150H16.6667C7.4625 150 5.72205e-06 142.288 5.72205e-06 133.333C5.72205e-06 124.379 14.325 104.917 75 104.917Z" fill="#78B159"/>
<path d="M29.9832 117.292C29.9832 123.671 35.1582 125.958 41.5374 125.958C47.9166 125.958 53.0916 123.675 53.0916 117.292L50.204 91.2959C50.204 84.9168 47.9207 85.5168 41.5374 85.5168C35.1582 85.5168 32.8707 84.9126 32.8707 91.2959L29.9832 117.292Z" fill="#662113"/>
<path d="M4.71661 82.1541C23.8416 64.925 31.5874 40.2542 41.5374 40.2542C51.4874 40.2542 59.2333 64.925 78.3541 82.1541C86.3916 89.3958 82.5624 93.5833 71.5458 92.7458C61.7249 92 52.5416 89.6583 41.5374 89.6583C30.5333 89.6583 21.3458 92.0042 11.5291 92.7458C0.512432 93.5833 -3.31673 89.3916 4.71661 82.1541Z" fill="#5C913B"/>
<path d="M10.9292 75.3251C25.6251 61.1542 33.8834 40.8542 41.5376 40.8542C49.1876 40.8542 57.4459 61.1542 72.1417 75.3251C83.8209 86.5876 56.8376 89.1126 41.5376 75.3251C26.2417 89.1126 -0.74577 86.5876 10.9292 75.3251Z" fill="#3E721D"/>
<path d="M10.9292 63.8458C25.6251 50.6041 33.8834 31.6416 41.5376 31.6416C49.1876 31.6416 57.4459 50.6041 72.1417 63.8458C83.8209 74.3666 56.8376 76.7249 41.5376 63.8458C26.2417 76.7249 -0.74577 74.3624 10.9292 63.8458Z" fill="#5C913B"/>
<path d="M17.6417 54.4417C29.1126 44.1042 35.5626 29.3 41.5376 29.3C47.5084 29.3 53.9584 44.1042 65.4334 54.4417C74.5501 62.6542 53.4876 64.5 41.5376 54.4417C29.5917 64.4959 8.52508 62.6542 17.6417 54.4417Z" fill="#3E721D"/>
<path d="M17.6417 45.8375C29.1126 35.5 35.5626 20.6958 41.5376 20.6958C47.5084 20.6958 53.9584 35.5 65.4334 45.8375C74.5501 54.05 53.4876 55.8958 41.5376 45.8375C29.5917 55.8958 8.52508 54.0541 17.6417 45.8375Z" fill="#5C913B"/>
<path d="M22.2541 38.2001C31.5124 29.8584 36.7166 17.9126 41.5374 17.9126C46.3582 17.9126 51.5624 29.8584 60.8207 38.2001C68.1791 44.8293 51.1791 46.3168 41.5374 38.2001C31.8957 46.3168 14.8916 44.8293 22.2541 38.2001Z" fill="#3E721D"/>
<path d="M22.2541 31.725C31.5124 23.3833 36.7166 11.4375 41.5374 11.4375C46.3582 11.4375 51.5624 23.3833 60.8207 31.725C68.1791 38.3542 51.1791 39.8417 41.5374 31.725C31.8957 39.8417 14.8916 38.3542 22.2541 31.725Z" fill="#5C913B"/>
<path d="M26.8625 22.1917C33.9041 15.8458 37.8666 6.75415 41.5374 6.75415C45.2041 6.75415 49.1666 15.8458 56.2124 22.1917C61.8124 27.2375 48.8749 28.3667 41.5374 22.1917C34.1999 28.3708 21.2625 27.2375 26.8625 22.1917Z" fill="#3E721D"/>
<path d="M26.8625 17.875C33.9041 11.5292 37.8666 2.4375 41.5374 2.4375C45.2041 2.4375 49.1666 11.5292 56.2124 17.875C61.8124 22.9208 48.8749 24.05 41.5374 17.875C34.1999 24.05 21.2625 22.9208 26.8625 17.875Z" fill="#5C913B"/>
<path d="M87.0791 137.5C88.8458 137.5 90.4208 136.387 91.0125 134.725L111.896 76.2541C112.121 75.6366 112.191 74.9734 112.101 74.3225C112.01 73.6716 111.761 73.0529 111.375 72.5207C110.983 71.9854 110.468 71.5526 109.873 71.2588C109.278 70.965 108.622 70.819 107.958 70.8332H58.9625C57.2916 70.8332 55.7791 71.7499 55.1208 73.2874L30.0625 131.717C29.7889 132.35 29.678 133.042 29.7397 133.729C29.8015 134.416 30.0339 135.077 30.416 135.652C30.7981 136.226 31.3177 136.696 31.9276 137.019C32.5375 137.342 33.2183 137.507 33.9083 137.5H87.0791Z" fill="#F4900C"/>
<path d="M133.021 137.5C133.711 137.497 134.39 137.324 134.998 136.995C135.605 136.667 136.121 136.193 136.501 135.616C136.881 135.04 137.112 134.378 137.175 133.691C137.237 133.003 137.128 132.311 136.858 131.675L111.783 73.1668C111.462 72.4145 110.927 71.7731 110.244 71.3224C109.562 70.8716 108.762 70.6313 107.944 70.6313C107.126 70.6313 106.326 70.8716 105.643 71.3224C104.961 71.7731 104.425 72.4145 104.104 73.1668L79.0291 131.671C78.7592 132.307 78.6507 133 78.7133 133.688C78.7758 134.376 79.0075 135.038 79.3878 135.615C79.768 136.192 80.285 136.666 80.8926 136.995C81.5003 137.324 82.1799 137.497 82.8708 137.5H133.021Z" fill="#FFCC4D"/>
<path d="M107.958 80.9834L116.317 137.5H99.6083L107.958 80.9834Z" fill="#292F33"/>
<path d="M91.1375 132.863L89.2709 137.5H99.6084L91.1375 132.863ZM124.783 132.863L126.65 137.5H116.317L124.783 132.863Z" fill="#FFAC33"/>
<path d="M99.6083 137.5C99.6083 137.5 92.0125 135.563 88.3 132.133L107.958 80.9834L99.6083 137.5ZM116.317 137.5C116.317 137.5 123.913 135.563 127.625 132.133L107.963 80.9792L116.317 137.5Z" fill="#FFE8B6"/>
<path d="M93.2292 23.4375C93.3042 23.4375 93.3708 23.4625 93.4458 23.4625C93.1321 21.9475 93.1597 20.3817 93.5268 18.8787C93.8938 17.3757 94.5911 15.9734 95.5679 14.7736C96.5446 13.5737 97.7764 12.6066 99.1737 11.9423C100.571 11.278 102.099 10.9334 103.646 10.9333C105.405 10.9347 107.134 11.3832 108.672 12.2367C110.21 13.0902 111.506 14.3207 112.437 15.8125C113.62 15.3507 114.877 15.1106 116.146 15.1042C118.679 15.108 121.123 16.0378 123.018 17.7186C124.912 19.3993 126.127 21.7149 126.433 24.2292C127.629 23.725 128.911 23.4562 130.208 23.4375C132.971 23.4375 135.621 24.535 137.574 26.4885C139.528 28.442 140.625 31.0915 140.625 33.8542C140.625 36.6169 139.528 39.2664 137.574 41.2199C135.621 43.1734 132.971 44.2708 130.208 44.2708H93.2292C90.4665 44.2708 87.817 43.1734 85.8635 41.2199C83.91 39.2664 82.8125 36.6169 82.8125 33.8542C82.8125 31.0915 83.91 28.442 85.8635 26.4885C87.817 24.535 90.4665 23.4375 93.2292 23.4375Z" fill="#E1E8ED"/>
</g>
<defs>
<clipPath id="clip0_301_802">
<rect width="150" height="150" fill="white" transform="matrix(-1 0 0 1 150 0)"/>
</clipPath>
</defs>
</svg>