<svg width="150" height="150" viewBox="0 0 150 150" fill="none" xmlns="http://www.w3.org/2000/svg">
<g clip-path="url(#clip0_301_787)">
<path d="M63.9832 66.1458L76.8291 70.9708L72.0124 83.8208C72.0124 83.8208 53.0541 79.6374 50.0999 75.0166C47.1457 70.3874 52.6082 63.6458 52.6082 63.6458L63.9832 66.1458Z" fill="black"/>
<path d="M8.33325 70.8333H141.667C141.667 70.8333 141.667 79.1666 137.5 99.9999C133.917 117.925 49.9999 104.167 34.9958 99.9999C22.1499 96.4333 8.33325 70.8333 8.33325 70.8333Z" fill="#C1694F"/>
<path d="M145.833 74.9999C145.833 76.105 145.394 77.1648 144.613 77.9462C143.832 78.7276 142.772 79.1666 141.667 79.1666H8.33341C7.22835 79.1666 6.16854 78.7276 5.38714 77.9462C4.60573 77.1648 4.16675 76.105 4.16675 74.9999C4.16675 73.8948 4.60573 72.835 5.38714 72.0536C6.16854 71.2722 7.22835 70.8333 8.33341 70.8333H141.667C142.772 70.8333 143.832 71.2722 144.613 72.0536C145.394 72.835 145.833 73.8948 145.833 74.9999Z" fill="#F4900C"/>
<path d="M0 99.7208L0 141.667C0 143.877 0.877974 145.996 2.44078 147.559C4.00358 149.122 6.1232 150 8.33333 150H141.667C143.877 150 145.996 149.122 147.559 147.559C149.122 145.996 150 143.877 150 141.667V101.512C150 98.8583 147.562 96.9416 144.958 97.4458C97.7375 106.571 50.5125 85.7417 3.29167 95.6167C1.37083 96.0167 0 97.7583 0 99.7208Z" fill="#55ACEE"/>
<path d="M102.692 56.3874C102.349 56.0457 101.886 55.8538 101.402 55.8538C100.918 55.8538 100.455 56.0457 100.112 56.3874L66.6499 89.8499C57.3791 99.1166 55.4374 92.3457 45.6791 102.104L32.2166 115.567C31.8179 115.966 31.594 116.508 31.594 117.073C31.594 117.638 31.8179 118.179 32.2166 118.579L36.3583 122.721L40.4999 126.862C41.3333 127.696 42.6791 127.696 43.5083 126.862L56.9708 113.4C66.7291 103.642 59.9583 101.696 69.2249 92.4291L102.687 58.9666C102.857 58.7977 102.992 58.5969 103.085 58.3758C103.177 58.1546 103.224 57.9175 103.225 57.6779C103.225 57.4382 103.178 57.2009 103.087 56.9795C102.995 56.758 102.861 56.5568 102.692 56.3874Z" fill="#1C6399"/>
<path d="M75.5542 25.15C79.8208 24.3583 85.3792 27.5667 85.4375 32.3417C85.5167 39.0042 80.8042 43.725 76.8458 42.5042C72.6958 41.225 70.2792 39.7833 69.4042 35.0875C68.5333 30.3917 71.2875 25.9417 75.5542 25.15Z" fill="#FFDC5D"/>
<path d="M70.3166 36.4251C65.8582 28.5292 79.6332 31.8792 79.6332 31.8792C82.2457 32.4834 79.5874 36.5167 80.3624 39.1501C80.8916 40.9709 77.1457 41.1584 77.1457 41.1584C77.1457 41.1584 75.5082 40.8167 75.0374 42.7917L75.0332 42.8084C74.8898 43.4537 74.856 44.1185 74.9332 44.7751C75.3416 48.9876 69.5166 50.3959 69.1124 46.1751C68.9541 44.5042 69.4041 43.1501 69.8874 41.9126L69.9291 41.8042C70.6499 39.9667 71.4166 38.3792 70.3166 36.4251Z" fill="#FFDC5D"/>
<path d="M70.3 25.5583C72.7709 23.2917 79.7875 22.225 83.3042 26.3792C86.2875 26.4375 86.8625 29.3958 86.3084 30.925C85.8667 32.1458 82.7084 31.875 81.4667 34.1167C81.0417 33.4125 81.1375 32.1542 81.3834 31.5208C80.2125 32.2792 80.1584 34.8583 75.9625 35.7375C71.9084 36.5875 71.9292 40.0292 71.9292 40.0292C71.9292 40.0292 70.1334 38.7125 69.0667 36.8542C67.0292 33.3083 67.5792 28.0583 70.3 25.5583Z" fill="#FFAC33"/>
<path d="M100.508 58.7084L100.017 58.2167C98.8875 57.05 98.1875 57.4167 97.5709 57.8C97.3042 57.9667 96.6125 58.3334 96.6084 58.3334C95.8667 58.2292 87.3 55.0375 86.2 53.9917C85.9 53.7042 84.0292 52.0167 83.4459 51.3667C81.7834 49.4959 79.9084 47.3209 77.3375 45.6042C75.3209 44.2584 74.7084 44.1542 73.7584 44.4C73.1731 44.5592 72.6277 44.8396 72.1576 45.2228C71.6875 45.6061 71.3031 46.0838 71.0292 46.625C69.7167 49.1459 70.4834 51.9709 72.8917 53.4875C77.6209 56.4709 81.2792 58.6959 83.4709 59.9125C85.1792 60.8584 89.7417 61.85 92.7584 62.5125C93.7917 62.7375 94.7667 62.95 94.95 63.025C95.2792 63.1584 95.7334 63.6125 96.1667 64.0542C96.8459 64.7417 97.5459 65.4417 98.2584 65.4417C98.3298 65.4428 98.4011 65.4358 98.4709 65.4209C99.5834 65.1917 100.163 64.0125 101.292 62.2C102.342 60.525 101.575 59.7625 100.508 58.7084Z" fill="#FFDC5D"/>
<path d="M81.0416 48.0999C79.0333 45.0499 78.0125 43.4332 74.95 42.7582C69.5875 41.5749 62.8166 44.0416 57.3583 50.7874C53.9041 55.0541 53.4125 59.8457 47.9458 66.5957C47.9458 66.5957 66.9833 69.6124 67.7541 66.9791C68.5208 64.3582 69.4458 60.6124 72.3375 58.0207C74.425 56.1499 74.45 55.2666 74.9458 54.7749C76.7208 56.2666 79.1208 57.5666 79.1208 57.5666L84.1583 51.7582L81.0416 48.0999Z" fill="#FA743E"/>
</g>
<defs>
<clipPath id="clip0_301_787">
<rect width="150" height="150" fill="white"/>
</clipPath>
</defs>
</svg>
