<svg width="150" height="150" viewBox="0 0 150 150" fill="none" xmlns="http://www.w3.org/2000/svg">
<path d="M20.7199 29.4282C28.9857 8.42822 46.1443 8.42822 54.4105 29.4282L77.8479 88.9727C83.6836 103.798 95.284 110.39 102.792 98.311L106.215 92.805C117.471 74.6972 135.882 74.6784 147.154 92.747V143.443C147.154 145.376 145.572 146.958 143.638 146.958H6.75322C4.81963 146.958 3.23759 145.376 3.23759 143.443V73.8446L20.7199 29.4282Z" fill="#BFBCAF"/>
<path d="M147.154 126.448V143.442C147.154 145.376 145.571 146.958 143.638 146.958H6.75293C4.81934 146.958 3.2373 145.376 3.2373 143.442V126.448H147.154Z" fill="#A39F90"/>
<path d="M57.0733 74.6209L57.2323 75.1441C57.3366 75.4852 57.4855 75.9867 57.6891 76.6204L58.4142 78.9091C58.689 79.7944 59.0186 80.787 59.3789 81.8695L60.5382 85.3664C60.9416 86.6101 61.403 87.9094 61.8689 89.2573L63.3109 93.4116L64.0524 95.5477L64.8615 97.7394L67.9729 106.119L70.7698 113.401C71.1744 114.468 71.5734 115.437 71.9124 116.3L72.8001 118.533L73.561 120.403C73.9228 121.293 74.8866 121.83 75.8127 121.576C76.2185 121.466 76.5756 121.223 76.8265 120.885C77.0775 120.548 77.2078 120.136 77.1964 119.716L77.1815 119.225L77.1645 118.653C77.1416 118.283 77.1302 117.734 77.0754 117.048L76.9881 115.911C76.9591 115.497 76.9213 115.051 76.8715 114.577C76.8273 114.102 76.7745 113.598 76.7121 113.07C76.6547 112.539 76.5885 111.983 76.5114 111.406C76.4391 110.828 76.3603 110.226 76.2677 109.607C76.1786 108.987 76.0887 108.345 75.98 107.691C75.7773 106.378 75.5338 105.003 75.2742 103.583L74.8588 101.428L74.3994 99.2323C74.2503 98.4914 74.071 97.7549 73.9055 97.0105C73.7385 96.2663 73.5683 95.5204 73.3822 94.7798L73.1098 93.6671L72.9738 93.1113L72.9059 92.8339L72.8719 92.6953C72.8786 92.7135 72.8508 92.63 72.8859 92.7319L72.8818 92.7147L72.8739 92.6798L72.8578 92.6104L72.3484 90.3967C71.9927 88.9368 71.6309 87.5039 71.2456 86.129C70.8803 84.807 70.4888 83.4924 70.0714 82.1859C69.6997 81.0153 69.3039 79.8525 68.8843 78.6981C68.5298 77.7214 68.156 76.7518 67.7631 75.7899L67.2566 74.5901L66.7972 73.5815C66.5279 72.9697 66.2821 72.5004 66.1231 72.1778C66.0445 72.0161 65.9772 71.8945 65.9329 71.8122L65.8658 71.6874L65.6086 71.2096C64.4379 69.0343 61.7657 68.0517 59.5301 69.102C57.4023 70.1024 56.422 72.4834 57.0733 74.6209Z" fill="#EDC0A2"/>
<path d="M92.765 121.963C91.1927 122.502 90.6981 122.773 86.134 123.838C79.5331 125.379 81.2048 124.39 72.3847 126.448" fill="#DEE254"/>
<path d="M71.2966 117.945C72.1966 119.451 73.9808 120.287 75.7811 119.867C76.6869 119.657 77.495 119.147 78.0741 118.419C77.0355 117.907 76.0617 117.135 77.0109 116.273C80.0657 113.499 78.7825 116.814 82.4212 118.433C83.2714 118.781 84.5016 119.149 86.388 119.518C89.5813 120.143 92.2239 119.224 92.5386 121.58C92.5386 121.58 89.5623 122.503 87.034 123.093C84.5057 123.682 83.1811 124.627 80.6288 124.587C78.9173 124.56 72.3853 126.449 72.3853 126.449L71.1267 121.054C70.8146 119.717 70.6893 118.537 71.2966 117.945Z" fill="#76DFFF"/>
<path d="M111.526 119.718C111.853 119.718 112.176 119.645 112.47 119.503C112.731 119.379 112.964 119.205 113.157 118.991C113.351 118.776 113.5 118.526 113.596 118.254C113.692 117.982 113.734 117.694 113.719 117.406C113.704 117.117 113.632 116.835 113.508 116.575L99.0677 86.2854L102.715 82.7753C103.031 82.4715 103.249 82.0802 103.34 81.6517C103.432 81.2232 103.393 80.7771 103.229 80.3707C103.066 79.9643 102.784 79.6162 102.421 79.371C102.058 79.1258 101.63 78.9949 101.191 78.9949H59.0487C58.6569 78.9949 58.2722 79.0997 57.9345 79.2983C57.5968 79.497 57.3184 79.7824 57.128 80.1249L36.9445 116.453C36.7586 116.787 36.6632 117.165 36.6678 117.547C36.6725 117.93 36.777 118.305 36.9711 118.635C37.1652 118.964 37.442 119.238 37.7742 119.428C38.1065 119.618 38.4826 119.717 38.8652 119.717H63.4433C64.0114 119.717 64.5574 119.497 64.9667 119.103L95.7308 89.4969L109.542 118.465C109.72 118.84 110.001 119.157 110.353 119.379C110.704 119.6 111.111 119.718 111.526 119.718ZM62.5582 115.323H42.6003L60.3422 83.3891H92.8189L93.7377 85.3163L62.5582 115.323Z" fill="#FF473E"/>
<path d="M80.7536 118.689C80.6222 118.72 80.5083 118.802 80.4371 118.916C80.3659 119.031 80.3431 119.169 80.3738 119.301C80.4045 119.432 80.4861 119.546 80.6008 119.617C80.7154 119.688 80.8536 119.711 80.9851 119.68C81.1165 119.65 81.2304 119.568 81.3016 119.453C81.3728 119.339 81.3956 119.201 81.3649 119.069C81.3342 118.938 81.2526 118.824 81.1379 118.753C81.0233 118.681 80.8851 118.659 80.7536 118.689ZM79.9427 118.444C79.9611 118.515 79.965 118.59 79.9541 118.663C79.9432 118.737 79.9178 118.807 79.8793 118.871C79.8408 118.934 79.7901 118.989 79.7301 119.032C79.6701 119.076 79.602 119.107 79.5298 119.124C79.4576 119.141 79.3827 119.143 79.3097 119.13C79.2366 119.118 79.1668 119.091 79.1043 119.051C79.0418 119.011 78.9878 118.959 78.9457 118.898C78.9035 118.837 78.8739 118.769 78.8587 118.696C78.8288 118.554 78.8559 118.405 78.9341 118.283C79.0123 118.16 79.1354 118.073 79.2772 118.04C79.4189 118.007 79.5679 118.03 79.6923 118.106C79.8167 118.181 79.9066 118.303 79.9427 118.444ZM75.7708 124.863L72.3226 126.181L71.1264 121.054C71.1053 120.964 71.0854 120.875 71.0663 120.786C73.2897 120.979 75.2361 122.571 75.7708 124.863ZM71.1955 117.728C71.2949 117.656 71.4192 117.625 71.541 117.644C71.6629 117.662 71.7723 117.729 71.8453 117.828C72.7427 119.05 74.2424 119.589 75.7585 119.235C76.505 119.061 77.1513 118.694 77.6473 118.189C77.9266 118.351 78.2162 118.495 78.5142 118.62C77.8758 119.362 76.9998 119.9 75.97 120.141C74.0854 120.58 72.218 119.905 71.0962 118.378C71.0235 118.279 70.9931 118.155 71.0117 118.033C71.0303 117.911 71.0964 117.802 71.1955 117.728Z" fill="#00B1FF"/>
<path d="M81.1494 117.097C81.135 117.066 81.1144 117.039 81.089 117.017C81.0636 116.995 81.0339 116.979 81.0018 116.969C80.054 116.679 79.2683 118.283 79.1815 118.466C79.1581 118.524 79.1576 118.588 79.1801 118.646C79.2026 118.704 79.2465 118.751 79.3026 118.777C79.3587 118.803 79.4228 118.807 79.4817 118.788C79.5406 118.768 79.5897 118.727 79.6189 118.672C79.8372 118.21 80.4272 117.298 80.8603 117.431C80.905 117.445 80.9529 117.445 80.9979 117.432C81.043 117.42 81.0833 117.394 81.1139 117.358C81.1446 117.323 81.1643 117.279 81.1706 117.233C81.1769 117.186 81.1695 117.139 81.1494 117.097ZM82.6313 117.886C82.622 117.916 82.6068 117.945 82.5866 117.969C82.5664 117.994 82.5416 118.014 82.5136 118.029C82.4856 118.044 82.4549 118.053 82.4233 118.056C82.3917 118.059 82.3598 118.056 82.3295 118.046C81.8968 117.914 81.3062 118.825 81.0882 119.288C81.0589 119.342 81.0098 119.384 80.9509 119.403C80.8921 119.423 80.828 119.419 80.7718 119.393C80.7157 119.366 80.6718 119.319 80.6493 119.261C80.6268 119.204 80.6273 119.139 80.6508 119.082C80.7375 118.898 81.5232 117.294 82.471 117.584C82.5323 117.603 82.5835 117.645 82.6136 117.702C82.6436 117.759 82.65 117.825 82.6313 117.886ZM83.2547 124.247C82.9608 124.327 82.662 124.398 82.3485 124.453C81.8725 122.391 82.5624 120.33 83.9807 118.951C84.3117 119.049 84.6724 119.144 85.069 119.235C83.5802 120.37 82.8062 122.309 83.2547 124.247Z" fill="white"/>
<path d="M92.7659 121.966C92.721 121.834 92.6259 121.726 92.5014 121.663C92.3768 121.601 92.2328 121.591 92.1006 121.634L91.7423 121.752C91.4692 121.845 91.1464 121.936 90.7717 122.052C90.4017 122.174 89.9669 122.271 89.4999 122.393L88.7695 122.579L87.9759 122.757L86.2614 123.139L86.0376 123.188L86.0095 123.195L85.9954 123.198L85.9884 123.199L86.0004 123.197L85.9433 123.208L85.829 123.229L85.3676 123.316L84.4286 123.492L82.5132 123.851C81.8733 123.958 81.2411 124.017 80.6156 124.102C80.0007 124.175 79.3541 124.269 78.7412 124.354C78.1277 124.444 77.5274 124.512 76.9699 124.612L75.4058 124.916L72.7134 125.438C72.6434 125.452 72.5769 125.48 72.5179 125.52C72.4589 125.56 72.4085 125.611 72.3699 125.671C72.3312 125.731 72.305 125.798 72.2929 125.868C72.2808 125.938 72.283 126.01 72.2994 126.08L72.4758 126.836C72.4914 126.904 72.5203 126.968 72.5608 127.025C72.6013 127.081 72.6526 127.13 72.7117 127.166C72.7709 127.203 72.8367 127.228 72.9055 127.239C72.9742 127.251 73.0446 127.248 73.1124 127.232L75.75 126.612L77.2787 126.253C77.8216 126.133 78.3961 126.047 78.9899 125.935C79.5864 125.829 80.1882 125.716 80.8462 125.611C81.491 125.498 82.1578 125.407 82.8009 125.273L84.7014 124.839L85.633 124.626C85.7856 124.591 85.9383 124.556 86.0909 124.521L86.3361 124.463L86.5603 124.404L88.2762 123.951L89.0704 123.74L89.8131 123.52C90.2886 123.375 90.7266 123.258 91.108 123.117C91.4889 122.983 91.8302 122.871 92.0941 122.769L92.4522 122.636C92.5816 122.587 92.6869 122.49 92.7455 122.365C92.8041 122.24 92.8115 122.096 92.7659 121.966Z" fill="#E5E5E5"/>
<path d="M70.8038 64.2401C71.5916 64.2105 72.2868 64.7792 72.3888 65.5763L75.1066 87.3762C75.1584 87.7813 75.0472 88.1905 74.7973 88.5137C74.5474 88.8369 74.1794 89.0475 73.7742 89.0994L62.2937 90.5683C62.093 90.594 61.8893 90.5799 61.6941 90.5269C61.4989 90.4738 61.3161 90.3828 61.156 90.2591C60.996 90.1353 60.8619 89.9813 60.7615 89.8057C60.661 89.6302 60.5961 89.4366 60.5704 89.2359L59.4381 79.8841L70.8038 64.2401Z" fill="#0074A8"/>
<path d="M111.525 142.862C125.498 142.862 136.867 131.493 136.867 117.52C136.867 103.547 125.498 92.1782 111.525 92.1782C97.5516 92.1782 86.1832 103.547 86.1832 117.52C86.1832 131.493 97.5516 142.862 111.525 142.862ZM111.525 98.3306C122.106 98.3306 130.714 106.939 130.714 117.52C130.714 128.101 122.106 136.709 111.525 136.709C100.944 136.709 92.3355 128.101 92.3355 117.52C92.3355 106.939 100.944 98.3306 111.525 98.3306ZM38.8658 142.862C52.8392 142.862 64.2076 131.493 64.2076 117.52C64.2076 103.547 52.8392 92.1782 38.8658 92.1782C24.8924 92.1782 13.524 103.547 13.524 117.52C13.524 131.493 24.8924 142.862 38.8658 142.862ZM38.8658 98.3306C49.447 98.3306 58.0553 106.939 58.0553 117.52C58.0553 128.101 49.447 136.709 38.8658 136.709C28.2847 136.709 19.6764 128.101 19.6764 117.52C19.6764 106.939 28.2847 98.3306 38.8658 98.3306Z" fill="#464A4C"/>
<path d="M53.0716 68.5477L72.3586 94.3717L72.2238 88.7607L60.0355 106.829C59.0593 108.277 59.441 110.241 60.8883 111.217C62.2005 112.102 63.9381 111.871 64.9787 110.742L65.3068 110.385L80.2603 94.1821C81.581 92.751 81.6516 90.6108 80.5254 89.1056L80.1255 88.5712L60.8385 62.7472C59.2365 60.6023 56.1993 60.1623 54.0548 61.7643C51.91 63.3656 51.4699 66.4028 53.0716 68.5477Z" fill="#FFD3B6"/>
<path d="M48.2095 83.6736H67.2521C70.1645 83.6736 72.5256 81.3125 72.5256 78.4001C72.5256 75.4877 70.1645 73.1267 67.2521 73.1267H48.2095C45.2971 73.1267 42.936 75.4877 42.936 78.4001C42.936 81.3125 45.2968 83.6736 48.2095 83.6736ZM98.5553 81.1918C98.5545 80.7251 98.6783 80.2665 98.9139 79.8635H98.5277C97.0714 79.8635 95.891 78.6832 95.891 77.2268C95.891 75.7705 97.0714 74.5901 98.5277 74.5901H113.425C113.903 74.5899 114.373 74.7199 114.783 74.9661C115.193 75.2124 115.529 75.5657 115.753 75.988C115.978 76.4104 116.084 76.886 116.059 77.3637C116.034 77.8415 115.879 78.3035 115.612 78.7001C115.258 79.2249 111.849 83.8286 101.192 83.8286C100.846 83.8286 100.503 83.7604 100.183 83.6279C99.8632 83.4954 99.5725 83.3012 99.3277 83.0564C99.0828 82.8115 98.8885 82.5209 98.756 82.2009C98.6235 81.881 98.5553 81.5381 98.5553 81.1918ZM111.525 116.005C111.927 116.005 112.312 116.164 112.596 116.449C112.881 116.733 113.04 117.118 113.04 117.52C113.04 117.922 112.881 118.307 112.596 118.591C112.312 118.876 111.927 119.035 111.525 119.035C111.123 119.035 110.738 118.876 110.454 118.591C110.169 118.307 110.01 117.922 110.01 117.52C110.01 117.118 110.169 116.733 110.454 116.449C110.738 116.164 111.123 116.005 111.525 116.005ZM38.8658 116.005C39.2677 116.005 39.6531 116.164 39.9373 116.449C40.2214 116.733 40.3811 117.118 40.3811 117.52C40.3811 117.922 40.2214 118.307 39.9373 118.591C39.6531 118.876 39.2677 119.035 38.8658 119.035C38.464 119.035 38.0786 118.876 37.7944 118.591C37.5102 118.307 37.3506 117.922 37.3506 117.52C37.3506 117.118 37.5102 116.733 37.7944 116.449C38.0786 116.164 38.464 116.005 38.8658 116.005Z" fill="#464A4C"/>
<path d="M69.0478 90.319C68.105 91.0852 66.5968 91.0172 65.5145 90.16L49.575 77.538C46.2507 74.8676 47.8951 67.6377 51.3281 65.896L56.1498 63.4494C56.2289 63.3853 54.7629 65.9748 54.8206 65.896L69.4898 73.7312C69.5644 73.9032 69.6687 74.0606 69.798 74.1964L76.4393 80.7615C77.5254 81.835 77.5529 83.4103 76.5012 84.2648L69.0478 90.319Z" fill="#00B1FF"/>
<path d="M69.0946 124.342C67.8498 123.24 67.3699 122.944 64.1915 119.5C59.5942 114.519 61.2788 115.485 55.1361 108.83" fill="#DEE254"/>
<path d="M59.2069 105.073C60.2153 104.142 61.1798 103.451 61.9948 103.687C61.1285 105.213 61.2829 107.177 62.5365 108.536C63.1661 109.22 64.0087 109.671 64.9272 109.816C64.8601 108.66 65.0511 107.432 66.269 107.832C70.1892 109.119 66.6727 109.64 67.0606 113.603C67.1772 114.514 67.4643 115.765 68.0745 117.588C69.1072 120.674 71.2108 122.519 69.3167 123.955C69.3167 123.955 67.0453 121.822 65.2846 119.914C63.5238 118.006 62.0484 117.321 60.8235 115.081C60.0024 113.579 55.1361 108.83 55.1361 108.83L59.2069 105.073Z" fill="#76DFFF"/>
<path d="M51.6674 63.0762C51.7183 63.0038 51.7746 62.9353 51.8358 62.8714L71.0771 39.4969C73.5999 35.8916 80.1337 36.1098 85.6708 39.9844C91.2079 43.8589 91.1285 48.157 88.6058 51.7623L73.3523 77.654C73.2809 77.7999 73.1982 77.9408 73.1036 78.0759C71.5236 80.3338 67.4024 80.1767 60.786 75.5472C54.1696 70.9178 50.0874 65.3341 51.6674 63.0762Z" fill="#597B91"/>
<path d="M76.9108 21.8325C78.1389 15.1042 84.5895 10.644 91.3204 11.8728C98.0487 13.1009 102.331 17.4673 101.103 24.1956L100.781 25.7832L100.781 25.7823L100.78 25.7847L100.776 25.8055C100.754 26.1017 101.178 29.4078 101.579 30.8721C102.03 32.52 101.008 32.6788 99.4289 32.4412L98.9066 35.0138C98.8201 35.4869 97.4646 35.1682 97.0477 34.8362C96.9737 34.7772 96.8889 34.7333 96.7979 34.7071C96.707 34.6809 96.6118 34.6729 96.5178 34.6836C96.4238 34.6942 96.3328 34.7233 96.25 34.7691C96.1672 34.815 96.0943 34.8767 96.0355 34.9508C95.9765 35.0247 95.9326 35.1096 95.9064 35.2005C95.8803 35.2914 95.8723 35.3866 95.8829 35.4806C95.8935 35.5746 95.9226 35.6656 95.9684 35.7484C96.0143 35.8312 96.076 35.9041 96.15 35.963C96.5004 36.2425 97.2691 36.5319 97.8015 36.7112C98.1009 36.812 98.2526 37.1642 98.1094 37.4457C96.4368 40.7328 92.8676 41.2341 88.5668 40.7205L87.733 41.9123C86.8084 43.2336 84.9879 43.555 83.6669 42.6307L81.1565 40.874C79.979 40.0502 79.5982 38.5156 80.1829 37.2562C75.0812 31.8626 76.9108 21.8325 76.9108 21.8325ZM72.2748 52.8875C74.0095 54.1013 76.3318 54.3649 78.3727 53.3762C78.7661 53.1847 79.1376 52.9509 79.4804 52.6789C79.5205 52.9569 79.5615 53.2353 79.6014 53.5133L80.3153 58.5887L81.0082 63.6658L97.149 72.5378C97.4293 72.5162 97.7112 72.5496 97.9787 72.6359C98.2264 72.447 98.5048 72.3023 98.8017 72.2082L99.7444 71.9114C100.058 71.8101 100.375 71.7201 100.691 71.6255C101.006 71.5302 101.323 71.4391 101.641 71.3522C101.959 71.2625 102.278 71.178 102.598 71.0984C103.825 70.7905 105.125 71.4192 105.623 72.6228C105.66 72.7108 105.691 72.8008 105.717 72.8923C106.963 73.3332 107.676 74.6668 107.32 75.9608C107.134 76.6364 106.954 77.3135 106.749 77.9847L106.658 78.2856C106.477 78.8729 106.078 79.3686 105.543 79.6702C105.007 79.9718 104.377 80.0563 103.781 79.9063C102.824 79.6661 101.874 79.3993 100.932 79.1062C100.695 79.035 100.461 78.9523 100.225 78.8762C99.9894 78.8002 99.7547 78.72 99.5215 78.6354C99.05 78.4713 98.5841 78.2915 98.1246 78.0963C97.8258 77.9671 97.5649 77.7635 97.367 77.5049C97.1691 77.2463 97.0407 76.9414 96.9941 76.6191C92.8362 75.5586 74.1525 70.6112 74.1525 67.3361L73.7244 64.6836L72.9782 59.6475L72.2115 54.6157C72.1069 53.9419 72.0012 53.2687 71.8948 52.5957C72.0185 52.6977 72.1441 52.7961 72.2748 52.8875Z" fill="#FFD3B6"/>
<path d="M96.0753 26.0705C96.2148 25.5595 96.719 25.2297 97.2483 25.326C97.7792 25.423 98.1343 25.9099 98.0848 26.4373L98.0971 26.4396L97.8369 27.8646L97.8325 27.8637L97.8319 27.8667C97.8107 28.0026 97.7625 28.1328 97.6902 28.2498C97.6178 28.3667 97.5228 28.468 97.4107 28.5477C97.2986 28.6274 97.1717 28.6838 97.0374 28.7137C96.9032 28.7435 96.7643 28.7462 96.629 28.7216C96.4937 28.697 96.3647 28.6455 96.2496 28.5702C96.1345 28.495 96.0356 28.3974 95.9588 28.2833C95.8819 28.1693 95.8287 28.041 95.8022 27.906C95.7758 27.7711 95.7766 27.6322 95.8046 27.4975C95.8046 27.4975 95.8069 27.4961 95.8075 27.494L95.8055 27.4937L96.0656 26.0687L96.0753 26.0705Z" fill="#2B3B47"/>
<path d="M97.2888 26.3489C97.3053 26.287 97.3444 26.2336 97.3985 26.1992C97.4525 26.1649 97.5175 26.1521 97.5806 26.1635C97.6435 26.1752 97.6998 26.2102 97.7384 26.2613C97.7769 26.3125 97.7949 26.3762 97.7889 26.44L97.7915 26.4406L97.7268 26.7957H97.7262L97.7259 26.7966C97.7205 26.8303 97.7084 26.8627 97.6903 26.8917C97.6723 26.9207 97.6486 26.9458 97.6207 26.9656C97.5928 26.9853 97.5612 26.9993 97.5278 27.0067C97.4944 27.0141 97.4599 27.0147 97.4263 27.0086C97.3927 27.0024 97.3606 26.9896 97.332 26.9709C97.3034 26.9522 97.2788 26.9279 97.2597 26.8996C97.2406 26.8713 97.2273 26.8394 97.2207 26.8058C97.2141 26.7723 97.2142 26.7378 97.2211 26.7043L97.2214 26.7034L97.2861 26.3483L97.2888 26.3489Z" fill="white"/>
<path d="M89.574 9.41165C94.5132 10.3134 101.185 12.692 101.37 12.9109C101.556 13.1315 100.622 14.422 100.801 14.6684C101.175 15.1826 101.535 15.7556 101.89 16.3972C102.217 16.9899 101.519 17.1566 99.3756 16.8519C98.8178 16.7725 99.206 18.2502 98.562 18.1427C98.2105 18.0841 92.4199 14.1431 90.6 24.1125C90.4547 24.9088 89.9558 25.3785 89.1715 25.2355C88.5943 25.13 86.3224 24.8476 85.8545 27.4108C85.3213 30.3323 77.0871 31.6278 76.8894 31.3193C75.5578 29.2448 74.7516 24.3636 75.5845 19.8021C76.4168 15.2406 80.9897 7.84456 89.574 9.41165Z" fill="#68442A"/>
<path d="M99.3293 23.4592L99.177 23.4132C98.8636 23.3237 98.5456 23.251 98.2245 23.1952C98.0067 23.1579 97.7874 23.1306 97.5671 23.1135C97.341 23.0942 97.1138 23.0918 96.8874 23.1061C96.7784 23.1079 96.6674 23.1296 96.5654 23.1416C96.4635 23.1524 96.3621 23.1861 96.2722 23.2057C96.1819 23.2239 96.0964 23.2676 96.0231 23.2933C95.949 23.3188 95.886 23.3546 95.8345 23.3868L95.6742 23.4844C95.5954 23.5317 95.5377 23.6075 95.5132 23.6962C95.4887 23.7848 95.4991 23.8795 95.5424 23.9606C95.5857 24.0418 95.6585 24.1032 95.7458 24.1322C95.8331 24.1611 95.9282 24.1554 96.0114 24.1163L96.0858 24.082L96.1793 24.0387C96.2147 24.0182 96.253 24.0034 96.293 23.9947C96.3428 23.9842 96.3882 23.959 96.4553 23.9531C96.5212 23.9464 96.5848 23.927 96.6645 23.9262C96.7433 23.9247 96.8215 23.9133 96.9111 23.9203C97.0855 23.9241 97.2762 23.9402 97.4687 23.9739C97.659 24.0049 97.8478 24.0447 98.0344 24.0932C98.3152 24.1669 98.592 24.2551 98.8638 24.3574L98.9859 24.4058L98.998 24.4104C99.0595 24.4348 99.1253 24.4468 99.1916 24.4457C99.2578 24.4446 99.3232 24.4305 99.3839 24.4042C99.4447 24.3779 99.4997 24.3398 99.5458 24.2922C99.5918 24.2446 99.6281 24.1884 99.6524 24.1268C99.6768 24.0652 99.6888 23.9995 99.6877 23.9332C99.6866 23.867 99.6725 23.8016 99.6462 23.7409C99.6199 23.6801 99.5818 23.6251 99.5342 23.579C99.4866 23.533 99.4304 23.4967 99.3689 23.4724C99.3563 23.468 99.3422 23.463 99.3293 23.4592Z" fill="#E5AB83"/>
<path d="M87.7222 30.8255C87.7961 30.839 87.872 30.8378 87.9454 30.8219C88.0189 30.8061 88.0885 30.776 88.1503 30.7332C88.2121 30.6905 88.2649 30.636 88.3056 30.5728C88.3464 30.5097 88.3743 30.4392 88.3878 30.3652C88.4013 30.2913 88.4001 30.2154 88.3842 30.142C88.3684 30.0685 88.3383 29.9989 88.2955 29.9371C88.2528 29.8753 88.1983 29.8225 88.1351 29.7818C88.072 29.741 88.0015 29.7131 87.9275 29.6996C86.9086 29.5136 86.2312 28.533 86.4173 27.5135C86.6033 26.4939 87.5836 25.8157 88.6025 26.0018C88.7518 26.029 88.9058 25.9958 89.0307 25.9095C89.1555 25.8232 89.2409 25.6908 89.2682 25.5415C89.2954 25.3922 89.2622 25.2382 89.1759 25.1134C89.0896 24.9885 88.9572 24.9031 88.8079 24.8759C87.1682 24.5765 85.5905 25.6675 85.2911 27.3078C84.9917 28.9481 86.0824 30.5261 87.7222 30.8255Z" fill="#EDC0A2"/>
<path d="M66.0146 112.279C65.9695 112.229 65.915 112.189 65.8542 112.16C65.7935 112.132 65.7277 112.116 65.6606 112.113C65.5935 112.11 65.5266 112.12 65.4635 112.143C65.4004 112.166 65.3426 112.201 65.2932 112.247C65.2439 112.293 65.2041 112.347 65.176 112.408C65.148 112.469 65.1323 112.535 65.1298 112.602C65.1274 112.669 65.1382 112.736 65.1618 112.799C65.1853 112.862 65.2211 112.92 65.267 112.969C65.3588 113.067 65.4855 113.124 65.6196 113.129C65.7537 113.134 65.8843 113.086 65.9829 112.995C66.0815 112.904 66.1402 112.777 66.1462 112.643C66.1521 112.509 66.1048 112.378 66.0146 112.279ZM65.828 111.452C65.7745 111.503 65.7115 111.543 65.6425 111.569C65.5735 111.595 65.5 111.608 65.4262 111.605C65.3524 111.603 65.2799 111.586 65.2127 111.555C65.1456 111.524 65.0853 111.481 65.0353 111.426C64.9852 111.372 64.9464 111.308 64.9212 111.239C64.896 111.17 64.8849 111.096 64.8884 111.022C64.892 110.948 64.9101 110.876 64.9419 110.809C64.9736 110.743 65.0183 110.683 65.0733 110.634C65.1823 110.537 65.3252 110.486 65.4712 110.493C65.6171 110.5 65.7545 110.564 65.8536 110.671C65.9527 110.779 66.0056 110.921 66.0008 111.067C65.996 111.213 65.9339 111.352 65.828 111.452ZM59.2069 105.073C59.2742 105.011 59.3418 104.949 59.41 104.888C60.339 106.918 59.9153 109.396 58.1862 110.992L55.3377 108.644L59.2069 105.073ZM61.519 103.726C61.5697 103.613 61.6628 103.526 61.7779 103.482C61.893 103.438 62.0208 103.442 62.1334 103.492C62.3675 103.597 62.4724 103.872 62.3675 104.106C61.7479 105.489 62.0188 107.06 63.0747 108.204C63.5947 108.767 64.2328 109.148 64.9172 109.33C64.9113 109.652 64.9342 109.987 64.9696 110.297C64.0093 110.108 63.109 109.612 62.3915 108.834C61.079 107.412 60.7447 105.455 61.519 103.726Z" fill="#00B1FF"/>
<path d="M67.5949 111.838C67.6142 111.81 67.6276 111.779 67.6341 111.746C67.6407 111.713 67.6403 111.679 67.633 111.646C67.4177 110.679 65.635 110.787 65.4322 110.802C65.3707 110.81 65.3146 110.841 65.2754 110.89C65.2363 110.938 65.2171 110.999 65.2218 111.061C65.2265 111.123 65.2548 111.18 65.3009 111.222C65.3469 111.264 65.4071 111.286 65.4691 111.284C65.9789 111.246 67.0629 111.309 67.161 111.751C67.1712 111.797 67.1944 111.839 67.228 111.872C67.2615 111.905 67.3038 111.927 67.3498 111.936C67.3958 111.945 67.4434 111.941 67.487 111.923C67.5305 111.906 67.568 111.876 67.5949 111.838ZM67.6398 113.516C67.6088 113.523 67.5767 113.523 67.5454 113.518C67.5142 113.513 67.4843 113.501 67.4575 113.484C67.4307 113.467 67.4075 113.445 67.3892 113.419C67.371 113.393 67.3581 113.363 67.3512 113.332C67.253 112.891 66.1688 112.827 65.659 112.865C65.597 112.867 65.5367 112.845 65.4907 112.803C65.4447 112.762 65.4164 112.704 65.4116 112.642C65.4069 112.58 65.4261 112.519 65.4653 112.471C65.5044 112.423 65.5605 112.391 65.6221 112.384C65.8248 112.368 67.6075 112.26 67.8229 113.228C67.8367 113.29 67.8253 113.356 67.7909 113.41C67.7566 113.464 67.7022 113.502 67.6398 113.516ZM62.4149 117.197C62.1957 116.978 61.9867 116.749 61.7886 116.511C63.3475 115.079 65.4806 114.662 67.3793 115.215C67.4648 115.58 67.5617 115.942 67.6699 116.301C65.9479 115.567 63.8795 115.851 62.4149 117.197Z" fill="white"/>
<path d="M69.0932 124.343C69.1854 124.239 69.2329 124.103 69.2255 123.964C69.218 123.825 69.1562 123.695 69.0533 123.601L68.7741 123.348C68.5579 123.156 68.3203 122.92 68.0344 122.652C67.7458 122.39 67.4464 122.06 67.1095 121.714L66.5871 121.171L66.0407 120.569L64.863 119.266L64.7092 119.096L64.6898 119.074L64.6802 119.064L64.6752 119.058L64.6834 119.067L64.6459 119.023L64.5709 118.934L64.2677 118.576L63.651 117.846L62.393 116.357C61.9843 115.854 61.6207 115.333 61.2387 114.831C60.8713 114.332 60.4702 113.817 60.0943 113.325C59.7129 112.836 59.3578 112.347 58.9957 111.912L57.9598 110.701L56.1762 108.618C56.1298 108.564 56.073 108.519 56.0091 108.488C55.9452 108.456 55.8756 108.438 55.8045 108.434C55.7333 108.43 55.6621 108.44 55.595 108.464C55.5279 108.488 55.4664 108.526 55.4142 108.574L54.8435 109.101C54.6278 109.3 54.6135 109.635 54.8127 109.85L56.6537 111.838L57.721 112.99C58.0931 113.403 58.4519 113.86 58.8419 114.321C59.2283 114.788 59.6238 115.255 60.0398 115.776C60.4562 116.281 60.8648 116.816 61.2984 117.309L62.6142 118.748L63.259 119.453L63.576 119.8L63.7474 119.984L63.9094 120.15L65.1501 121.419L65.7258 122.006L66.2839 122.543C66.6439 122.885 66.9618 123.208 67.2735 123.47C67.5782 123.735 67.8431 123.977 68.0622 124.156L68.3549 124.402C68.4613 124.49 68.598 124.534 68.7359 124.523C68.8738 124.512 69.002 124.447 69.0932 124.343Z" fill="#E5E5E5"/>
</svg>