<svg width="150" height="150" viewBox="0 0 150 150" fill="none" xmlns="http://www.w3.org/2000/svg">
<path d="M82.4062 60.375L77.9531 60.7031C70.8281 60.9375 66.0937 64.7344 65.0625 71.5781L59.1563 96.4219C59.0625 96.8906 58.8281 97.3125 58.5469 97.6875L39.6562 123.234L46.0781 127.312L65.4375 108.234C68.8125 105 71.6719 102.328 72.8438 99.75L78.375 79.6406L82.4062 60.375Z" fill="#636363"/>
<path d="M86.25 75.9376L92.2031 94.2189C93.2813 97.2658 93.8906 100.594 94.4063 105.235L97.0312 129.563L90.9844 135L81.4688 103.078L66.6094 86.2033C64.1719 83.3908 63.2812 79.6408 63.9375 75.9845L74.8688 73.6736L86.25 75.9845V75.9376Z" fill="#9B9B9B"/>
<path d="M36.3281 125.859L40.875 121.594L48.3281 125.016L51.4219 139.312C51.6562 140.906 49.6875 141.844 48.5625 140.672L36.2812 127.5C35.8594 127.031 35.8594 126.281 36.3281 125.859ZM92.8594 140.484L90.8437 134.578L96.9844 129.187L111.281 132.234C112.875 132.656 112.922 134.859 111.375 135.375L94.3125 141.188C93.7031 141.422 93.0469 141.094 92.8594 140.484Z" fill="#533566"/>
<path d="M55.1156 78.0657C55.2528 77.6348 55.3841 77.2019 55.5093 76.7673C55.6059 76.4098 55.7122 76.055 55.8281 75.7032C61.7578 58.4907 73.9687 51.1595 75.225 50.4095C75.7543 50.1489 76.2263 49.7852 76.6133 49.3398C77.0003 48.8945 77.2946 48.3763 77.4788 47.8158C77.663 47.2553 77.7335 46.6636 77.6862 46.0755C77.6388 45.4874 77.4746 44.9146 77.2031 44.3908C76.0781 42.2345 73.4062 41.3907 71.2968 42.5157C70.6406 42.8439 54.9375 51.2345 47.5312 72.797L47.2594 73.5611C47.0531 74.1236 46.8609 74.6533 46.7343 75.1408L45.3281 78.6564L45.2953 78.7408C44.9156 79.7954 44.2078 81.7314 44.3906 82.7814C44.625 84.047 46.7344 85.4533 48.5156 86.0158C48.5156 86.0158 50.7656 86.7189 52.6875 86.2501C54.1406 85.922 53.9062 84.2345 53.9062 84.2345C53.9062 84.2345 54.4218 83.8126 55.7343 82.8751C57.4359 81.6376 55.7578 78.9564 55.1156 78.0657ZM79.4906 51.2673C79.3688 50.1211 79.7073 48.9734 80.4316 48.0767C81.156 47.1801 82.2069 46.6079 83.3531 46.4861C84.4993 46.3642 85.647 46.7027 86.5437 47.4271C87.4403 48.1514 88.0125 49.2023 88.1343 50.3486L88.139 50.4001C88.2393 51.0386 88.3691 51.6721 88.5281 52.2986C88.8797 53.6767 89.5125 55.6923 90.6281 58.0876C92.7703 62.6814 96.7218 68.7095 103.964 74.3158C104.93 74.0673 108.145 73.4111 108.703 75.5158C109.125 77.0626 109.312 77.672 109.312 77.672C109.312 77.672 110.953 78.047 110.719 79.547C110.437 81.4689 108.984 83.297 108.984 83.297C107.812 84.7501 105.75 86.1564 104.531 85.922C103.584 85.7157 102.272 84.6048 101.4 83.8595L101.062 83.5783L98.3906 80.9907C90.0843 74.4939 85.3828 67.4017 82.7531 61.7626C81.3797 58.8142 80.5687 56.2783 80.1047 54.4361C79.8489 53.4256 79.6471 52.4023 79.5 51.3704L79.4953 51.3001V51.2767L79.4906 51.2673Z" fill="#FFD7C2"/>
<path d="M75.5156 31.7812L74.0156 41.0156L83.4844 42.6563L84.9375 33.2344L75.5156 31.7812Z" fill="#F4C6AD"/>
<path d="M83.2031 63.8906C80.3437 58.4531 78.9375 53.5312 78.2812 49.9688C77.7187 47.0156 79.9687 44.25 82.9687 44.1094H83.1562C85.4062 44.1094 86.625 45.2344 87.0469 47.4844C87.2812 48.7969 88.3594 51.0469 88.9687 52.9219C89.6719 55.125 90.6094 57.2813 91.7344 59.3906C91.9219 59.7656 91.7812 60.1875 91.4062 60.375L84.1875 64.1719C83.8125 64.4062 83.3906 64.2656 83.2031 63.8906Z" fill="#0092E7"/>
<path d="M78.1875 40.4531C83.7187 41.8125 87.0469 43.7343 88.5 51.6562C90.2344 61.125 86.2969 75.9843 86.2969 75.9843H63.9375L66.75 49.5468C67.3594 43.9218 72.0469 38.9531 78.1875 40.4531Z" fill="#00A6ED"/>
<path d="M59.2969 51.9845C63.5156 47.3439 67.6875 44.3439 70.875 42.4689C73.5 40.8752 76.9219 42.047 78.0937 44.8595L78.1875 45.047C78.8906 47.2502 78 49.6408 75.9844 50.8127C74.7656 51.5158 73.3125 52.4533 71.7656 53.7189C69.8906 55.172 68.1563 56.8127 66.5625 58.5939C66.2813 58.922 65.8125 58.922 65.4844 58.6408L59.3437 53.0627C59.0156 52.7814 59.0156 52.3127 59.2969 51.9845Z" fill="#3BC6F6"/>
<path d="M80.7656 14.8126L85.9687 14.7188C90.4219 14.6251 94.0781 18.1876 94.1719 22.5939V24.8439C94.1719 25.547 94.3594 26.2501 94.7344 26.8595C95.8594 28.6407 96.375 28.8282 96.4219 29.7189C96.5156 31.1251 95.2031 31.5001 94.5937 31.5938C94.4062 31.6407 94.2656 31.7814 94.2656 31.9689C94.2187 36.9376 93.375 40.5001 87.4219 40.5938C83.8125 40.6407 78.0469 38.9532 76.3125 34.6876L74.6719 28.9688L72.7969 22.9689C72.7969 18.5626 76.3594 14.9063 80.7656 14.8126Z" fill="#FFD7C2"/>
<path d="M92.2031 27.2345C92.4844 27.2345 92.7656 26.9533 92.7656 26.5783V26.5314C92.7188 25.0783 91.4531 24.2345 90.2344 24.2814C89.0156 24.2814 87.75 25.172 87.7969 26.6251V26.672C87.7969 27.047 88.0781 27.3283 88.3594 27.3283L92.2031 27.2345Z" fill="white"/>
<path d="M92.6719 27.2812C92.7261 27.0505 92.7575 26.815 92.7656 26.5781C92.7656 25.5 92.0625 24.6562 91.2188 24.6562C90.375 24.6562 89.7188 25.5469 89.7188 26.625C89.7188 26.8594 89.7656 27.0937 89.8125 27.3281L92.6719 27.2812Z" fill="#7D4533"/>
<path d="M92.1703 27.2813C92.2974 27.069 92.3623 26.8254 92.3578 26.5781C92.3578 25.9688 91.9359 25.5 91.4672 25.5C90.9984 25.5 90.6234 26.0156 90.6234 26.625C90.6234 26.9062 90.7078 27.0938 90.8016 27.2813H92.1703Z" fill="black"/>
<path d="M91.6219 25.8844C91.5656 25.6828 91.6594 25.4813 91.8328 25.4297C92.0062 25.3828 92.1937 25.5 92.2547 25.7016C92.3109 25.8985 92.2172 26.1 92.0391 26.1516C91.8656 26.1985 91.6828 26.0813 91.6219 25.8844Z" fill="white"/>
<path d="M89.2594 31.9783C88.9781 32.072 88.8328 32.3814 88.9312 32.6626C89.1864 33.3843 89.716 33.9761 90.4049 34.3096C91.0939 34.6431 91.8866 34.6914 92.6109 34.4439C92.731 34.387 92.8258 34.2877 92.8772 34.1652C92.9286 34.0427 92.9329 33.9055 92.8893 33.7799C92.8457 33.6544 92.7573 33.5494 92.6411 33.4851C92.5248 33.4208 92.3889 33.4016 92.2594 33.4314C91.3219 33.7595 90.2672 33.2439 89.9437 32.3064C89.896 32.1725 89.7973 32.0629 89.6691 32.0015C89.5409 31.94 89.3937 31.9317 89.2594 31.9783Z" fill="#990838"/>
<path d="M88.0828 24.1033C88.3145 24.1068 88.5402 24.0289 88.7203 23.883C89.5113 23.3282 90.4804 23.0876 91.439 23.208C91.6059 23.2254 91.7745 23.2019 91.9302 23.1394C92.0858 23.0769 92.2239 22.9774 92.3325 22.8495C92.441 22.7215 92.5167 22.5691 92.5529 22.4053C92.5892 22.2415 92.585 22.0713 92.5406 21.9096C92.4847 21.7147 92.3718 21.5409 92.2165 21.4106C92.0611 21.2803 91.8704 21.1994 91.6687 21.1783C90.1781 21.0096 88.6687 21.408 87.45 22.2893C87.2845 22.4205 87.164 22.6 87.1052 22.8028C87.0464 23.0057 87.0522 23.2218 87.1217 23.4212C87.1913 23.6206 87.3212 23.7934 87.4934 23.9156C87.6656 24.0378 87.8716 24.1034 88.0828 24.1033Z" fill="#212121"/>
<path d="M74.2031 11.4376C70.9219 12.2345 69.2344 15.2345 69.2344 18.3751C69.2344 18.3751 69.2344 20.9063 69.6562 23.0626C69.8906 24.2813 70.1719 25.547 70.4531 26.5782C70.7344 27.7501 71.3906 29.3438 72.0937 30.3282C72.75 31.2188 74.1562 32.0626 75.4687 32.2032C76.6219 32.3204 78.5156 31.5329 79.0078 30.0845C78.6147 29.803 78.2903 29.4363 78.059 29.0117C77.8276 28.5872 77.6953 28.1158 77.6719 27.6329C77.6218 26.9479 77.791 26.2648 78.1551 25.6825C78.5192 25.1001 79.0592 24.6488 79.6969 24.3938C79.9084 24.2709 80.1462 24.2001 80.3906 24.1876L80.9062 24.1407C81.1477 24.126 81.3837 24.063 81.6003 23.9553C81.8169 23.8476 82.0096 23.6975 82.167 23.5138C82.3245 23.3302 82.4434 23.1167 82.5167 22.8862C82.59 22.6557 82.6162 22.4128 82.5937 22.172C82.5 20.9063 83.4375 19.8282 84.7031 19.8282L93.3281 19.2657C93.375 19.2188 93.4687 19.2188 93.5156 19.2188C94.4147 19.0565 95.2275 18.5818 95.8107 17.8785C96.3938 17.1753 96.7099 16.2886 96.7031 15.3751C96.6562 13.172 94.8281 11.4845 92.6719 11.6251C92.0156 11.672 91.4062 11.3438 91.0312 10.8751C90.4617 10.1544 89.6602 9.65312 88.7629 9.45657C87.8656 9.26002 86.928 9.3803 86.1094 9.79695C84.8437 10.4063 83.3906 10.5001 82.0781 10.0313C81.5625 9.8907 81.0469 9.79695 80.4844 9.84383C79.7812 9.8907 79.125 10.0782 78.5625 10.4532C77.7656 10.922 76.8281 11.2032 75.8906 11.2032C75.3281 11.2032 74.8125 11.297 74.2031 11.4376Z" fill="#212121"/>
</svg>