<svg width="150" height="150" viewBox="0 0 150 150" fill="none" xmlns="http://www.w3.org/2000/svg">
<path d="M18.75 77.3438C18.75 47.5734 42.8859 23.4375 72.6562 23.4375C102.427 23.4375 126.562 47.5734 126.562 77.3438C126.562 107.114 102.427 131.25 72.6562 131.25C42.8859 131.25 18.75 107.114 18.75 77.3438Z" fill="#F4F4F4"/>
<path d="M113.752 29.2219C112.95 27.4547 112.5 25.4953 112.5 23.4375C112.5 15.7031 118.828 9.375 126.562 9.375C134.297 9.375 140.625 15.7031 140.625 23.4375C140.625 31.1719 134.297 37.5 126.562 37.5C124.5 37.5 122.545 37.05 120.778 36.2484C130.581 47.6942 135.959 62.2736 135.938 77.3438C135.938 112.294 107.606 140.625 72.6562 140.625C37.7063 140.625 9.375 112.294 9.375 77.3438C9.375 42.3938 37.7063 14.0625 72.6562 14.0625C87.7262 14.0418 102.305 19.4197 113.752 29.2219ZM126.609 30.9844C128.611 30.9844 130.531 30.1893 131.946 28.7739C133.361 27.3586 134.156 25.4391 134.156 23.4375C134.156 21.4359 133.361 19.5164 131.946 18.1011C130.531 16.6857 128.611 15.8906 126.609 15.8906C124.608 15.8906 122.688 16.6857 121.273 18.1011C119.858 19.5164 119.062 21.4359 119.062 23.4375C119.062 25.4391 119.858 27.3586 121.273 28.7739C122.688 30.1893 124.608 30.9844 126.609 30.9844ZM72.6562 28.125C45.4734 28.125 23.4375 50.1609 23.4375 77.3438C23.4375 104.527 45.4734 126.562 72.6562 126.562C99.8391 126.562 121.875 104.527 121.875 77.3438C121.875 50.1609 99.8391 28.125 72.6562 28.125Z" fill="#F9C23C"/>
<path d="M112.5 31.1719L118.875 37.5469L125.25 31.1719C126.984 29.4375 126.984 26.5781 125.25 24.7969C123.516 23.0625 120.656 23.0625 118.875 24.7969L112.5 31.1719Z" fill="#FFB02E"/>
<path d="M66.9187 88.0172L55.2656 96.5156C54.1406 97.3594 52.7344 95.9531 53.5312 94.7813L62.0625 83.0906L33.9844 78.7031C32.4375 78.4687 32.4375 76.2188 33.9844 75.9844L66.2531 70.9406L71.2969 38.6719C71.5312 37.125 73.7813 37.125 74.0156 38.6719L78.4078 66.75L90.0938 58.2188C91.2188 57.375 92.625 58.7813 91.8281 59.9531L83.3297 71.6062L111.328 75.9844C112.875 76.2188 112.875 78.4687 111.328 78.7031L79.0594 83.7469L74.0156 116.016C73.7813 117.563 71.5312 117.563 71.2969 116.016L66.9187 88.0172Z" fill="#9B9B9B"/>
<path d="M79.6875 68.7281L50.0297 51.8484C48.1641 50.7984 46.1109 52.8516 47.1609 54.7219L64.0594 84.375L79.6875 68.7281Z" fill="#9B9B9B"/>
<path d="M65.625 85.8937L95.2875 102.844C95.6874 103.071 96.1509 103.162 96.607 103.1C97.063 103.039 97.4863 102.829 97.8117 102.504C98.137 102.178 98.3465 101.755 98.408 101.299C98.4694 100.843 98.3793 100.38 98.1516 99.9797L81.2344 70.3125L65.625 85.8937Z" fill="#E5336D"/>
<path d="M60.9375 77.3438C60.9375 74.2357 62.1721 71.255 64.3698 69.0573C66.5675 66.8596 69.5482 65.625 72.6562 65.625C75.7643 65.625 78.745 66.8596 80.9427 69.0573C83.1403 71.255 84.375 74.2357 84.375 77.3438C84.375 80.4518 83.1403 83.4325 80.9427 85.6302C78.745 87.8278 75.7643 89.0625 72.6562 89.0625C69.5482 89.0625 66.5675 87.8278 64.3698 85.6302C62.1721 83.4325 60.9375 80.4518 60.9375 77.3438Z" fill="#D3D3D3"/>
</svg>