<svg width="150" height="150" viewBox="0 0 150 150" fill="none" xmlns="http://www.w3.org/2000/svg">
<g clip-path="url(#clip0_301_836)">
<path d="M87.5 104.167C76.85 104.167 70.575 91.1334 65.9959 84.6834C65.6012 84.1237 65.0778 83.667 64.4698 83.3518C63.8618 83.0366 63.187 82.872 62.5021 82.872C61.8173 82.872 61.1424 83.0366 60.5344 83.3518C59.9264 83.667 59.403 84.1237 59.0084 84.6834C54.425 91.1334 48.1542 104.167 37.5 104.167C18.5375 104.167 4.48754 91.5292 0.900043 72.4209C-3.34996 49.8126 14.9542 29.1667 37.9584 29.1667H87.0417C110.046 29.1667 128.35 49.8126 124.1 72.4209C120.513 91.5292 106.463 104.167 87.5 104.167Z" fill="#66757F"/>
<path d="M75 91.6667L62.5 79.1667L50 91.6667L41.6666 100C50 100 54.1666 112.5 62.5 112.5C70.8333 112.5 75 100 83.3333 100L75 91.6667Z" fill="#292F33"/>
<path d="M87.5 104.167C76.85 104.167 70.575 91.1334 65.9959 84.6834C65.6012 84.1237 65.0778 83.667 64.4698 83.3518C63.8618 83.0366 63.187 82.872 62.5021 82.872C61.8173 82.872 61.1424 83.0366 60.5344 83.3518C59.9264 83.667 59.403 84.1237 59.0084 84.6834C54.425 91.1334 48.1542 104.167 37.5 104.167C18.5375 104.167 4.48754 91.5292 0.900043 72.4209C-3.34996 49.8126 14.9542 29.1667 37.9584 29.1667H87.0417C110.046 29.1667 128.35 49.8126 124.1 72.4209C120.513 91.5292 106.463 104.167 87.5 104.167Z" fill="#4E9322"/>
<path d="M87.5001 95.8333C83.1626 95.8333 78.6959 88.9 75.4334 83.8333C74.4917 82.375 73.6126 81.0167 72.7876 79.8583C71.6209 78.2159 70.0785 76.876 68.289 75.9505C66.4995 75.0249 64.5147 74.5405 62.5001 74.5375C58.4209 74.5375 54.5792 76.525 52.2126 79.85C51.3834 81.0208 50.5042 82.375 49.5667 83.8375C46.3042 88.9 41.8417 95.8333 37.5001 95.8333C22.8667 95.8333 11.9792 86.2708 9.08756 70.8833C7.56673 62.7958 9.70006 54.7583 15.0959 48.2542C17.8786 44.8875 21.3712 42.1776 25.3236 40.3184C29.276 38.4593 33.5905 37.4968 37.9584 37.5H87.0417C95.9001 37.5 104.233 41.4208 109.9 48.2542C115.296 54.7583 117.433 62.7958 115.908 70.8833C113.021 86.275 102.133 95.8333 87.5001 95.8333Z" fill="#88C9F9"/>
<path d="M111.504 46.9251C108.527 43.3224 104.79 40.4224 100.561 38.4328C96.332 36.4433 91.7154 35.4133 87.0417 35.4168H37.9584C33.2847 35.4133 28.6681 36.4433 24.439 38.4328C20.2099 40.4224 16.473 43.3224 13.4959 46.9251C7.69587 53.9168 5.4042 62.5584 7.0417 71.2668C10.1292 87.7043 21.8 97.9168 37.5 97.9168C42.975 97.9168 47.6 90.7376 51.3167 84.9668C52.2375 83.5334 53.1 82.2043 53.9084 81.0584C55.8875 78.2793 59.0959 76.6209 62.5 76.6209C65.9042 76.6209 69.1125 78.2793 71.0917 81.0668C71.9 82.2001 72.7625 83.5376 73.6834 84.9626C77.4 90.7334 82.025 97.9168 87.5 97.9168C103.204 97.9168 114.871 87.7084 117.958 71.2668C119.596 62.5626 117.3 53.9168 111.504 46.9251ZM113.863 70.5001C111.171 84.8418 101.071 93.7501 87.5 93.7501C84.2959 93.7501 79.8459 86.8376 77.1834 82.7043C76.225 81.2209 75.3292 79.8376 74.4875 78.6543C73.1272 76.7416 71.3297 75.1814 69.2446 74.1037C67.1595 73.0261 64.8472 72.462 62.5 72.4584C57.75 72.4584 53.2709 74.7709 50.5125 78.6501C49.5849 79.9871 48.6847 81.3429 47.8125 82.7168C45.15 86.8418 40.7042 93.7501 37.5 93.7501C23.9334 93.7501 13.8292 84.8376 11.1334 70.4959C9.73337 63.0293 11.7084 55.6043 16.7 49.5834C19.2875 46.4529 22.5349 43.9331 26.21 42.2043C29.8851 40.4755 33.897 39.5805 37.9584 39.5834H87.0417C95.2792 39.5834 103.025 43.2293 108.3 49.5834C113.288 55.6043 115.267 63.0334 113.863 70.5001Z" fill="#292F33"/>
<path d="M52.0625 39.6042L14.6583 77.0084C16.475 82.3834 19.2042 86.6459 22.975 89.5251L72.8958 39.6042H52.0625Z" fill="#BBDDF5"/>
<path d="M62.5 62.5C54.8458 62.5 47.1916 80.0625 39.5375 92.6125C42.9833 90.2917 46.7541 84.9833 49.0625 81.3958C49.9333 80.0417 50.75 78.7833 51.5166 77.6958C53.7125 74.6083 57.8291 72.375 62.4958 72.375C64.8324 72.3793 67.1353 72.9324 69.2189 73.9897C71.3025 75.0471 73.1086 76.5792 74.4916 78.4625C75.2583 79.5375 76.075 80.8 76.9458 82.15C79.2833 85.7792 81.6416 90.6667 85.5208 92.7208C77.8541 80.1667 70.175 62.5 62.5 62.5Z" fill="#3C96CE"/>
<path d="M108.333 150C101.025 149.985 93.8489 148.056 87.5187 144.404C81.1885 140.753 75.9256 135.506 72.2542 129.187C71.6897 128.24 71.319 127.189 71.1637 126.097C71.0084 125.005 71.0714 123.893 71.3493 122.825C71.6271 121.757 72.1142 120.755 72.7822 119.877C73.4502 119 74.2859 118.263 75.2408 117.71C76.1957 117.158 77.2508 116.801 78.3448 116.659C79.4389 116.518 80.5502 116.595 81.6143 116.886C82.6783 117.177 83.6739 117.677 84.5434 118.356C85.4128 119.035 86.1388 119.88 86.6792 120.842C88.8828 124.634 92.0415 127.783 95.8408 129.975C99.6401 132.166 103.947 133.324 108.333 133.333C122.121 133.333 133.333 122.121 133.333 108.333V8.33333C133.333 6.1232 134.211 4.00358 135.774 2.44078C137.337 0.877974 139.457 0 141.667 0C143.877 0 145.996 0.877974 147.559 2.44078C149.122 4.00358 150 6.1232 150 8.33333V108.333C150 131.308 131.308 150 108.333 150Z" fill="#F4900C"/>
<path d="M89.9417 125.608L74.3917 131.608C72.3292 132.397 70.0383 132.338 68.0194 131.443C66.0005 130.548 64.4177 128.891 63.6167 126.833C62.8279 124.771 62.8872 122.48 63.7819 120.461C64.6766 118.442 66.3339 116.859 68.3917 116.058L83.9417 110.058C86.0043 109.27 88.2952 109.329 90.314 110.224C92.3329 111.118 93.9157 112.776 94.7167 114.833C95.5056 116.896 95.4462 119.187 94.5515 121.206C93.6568 123.225 91.9996 124.807 89.9417 125.608Z" fill="#292F33"/>
<path d="M133.333 20.8333H150V37.4999H133.333V20.8333ZM133.333 49.9999H150V66.6666H133.333V49.9999Z" fill="#FFCC4D"/>
</g>
<defs>
<clipPath id="clip0_301_836">
<rect width="150" height="150" fill="white"/>
</clipPath>
</defs>
</svg>