<svg width="150" height="150" viewBox="0 0 150 150" fill="none" xmlns="http://www.w3.org/2000/svg">
<path d="M126.65 8.39649C122.725 8.39649 118.857 10.2803 114.785 14.25C113.613 15.4043 112.5 16.6113 111.387 17.8008C112.471 19.4385 113.174 21.5039 113.643 23.209C115.283 21.4072 116.895 19.5732 118.477 18.0059C121.436 15.082 124.072 13.4385 126.357 13.7109C131.074 14.2676 133.301 15.6299 135.029 17.4639C136.758 19.2979 137.988 21.8936 139.834 24.8408L144.287 22.0342C142.676 19.4502 141.357 16.4824 138.867 13.8281C134.59 10.2744 130.576 8.39356 126.65 8.39649ZM33.3105 13.3682C17.6807 13.4356 10.5469 18.5127 5.28516 23.8799L9.05273 27.5713C14.1562 22.3652 19.3154 18.2695 35.4199 18.6885L45.5273 28.2158H49.9219C49.8633 25.5967 47.6367 23.1182 46.2305 21.624C41.8652 16.8955 39.1699 13.3564 33.3105 13.3682ZM76.2891 16.2363C73.3301 16.2363 70.3711 16.2979 67.6172 16.4033C68.7305 18.8584 69.2578 21.4951 69.5508 23.6924C69.8437 27.1025 64.9805 27.3076 64.3359 24.4014C63.9844 21.8789 62.9883 18.6035 61.7285 16.7168C57.2754 17.0098 53.2617 17.4053 49.9219 17.8096C52.0605 20.4316 55.1953 24.1963 55.1953 26.8975C55.3418 53.1738 54.375 79.6582 52.3535 106.26C52.8223 105.762 53.291 105.264 53.7891 104.824C56.25 102.598 59.1797 100.811 62.5781 101.016H62.6074C63.3691 101.074 64.1016 101.221 64.8047 101.426C64.8633 96.5625 64.9805 92.373 64.834 88.418C66.3867 90.0586 67.9688 91.3477 70.1074 88.2422C70.3125 93.3984 70.0781 98.6426 70.0195 104.912C70.3418 105.234 70.6055 105.557 70.8984 105.879C73.0664 108.398 74.8242 111.504 76.2891 114.551C76.8164 115.664 77.2851 116.748 77.7246 117.803C78.1055 101.25 77.8711 84.7266 77.0801 68.1738C79.5996 71.4844 80.9766 70.2246 82.3535 67.9394C83.1445 84.5215 83.3789 101.133 82.998 117.715C86.3379 114.404 90.3516 111.006 95.1855 111.094C96.3867 111.123 97.4707 111.387 98.4668 111.826L98.4961 104.824C100.811 107.432 102.422 106.846 103.77 104.824L103.711 116.016C104.736 117.07 105.732 118.33 106.582 119.443C107.725 118.857 109.189 118.154 110.947 117.393L109.277 95.7422C111.035 97.3535 112.793 98.6719 114.551 95.332L116.104 115.4C118.037 114.727 120.059 114.17 122.08 113.936C118.799 86.5723 114.697 57.6855 109.102 27.1025H109.131C108.721 24.9375 108.164 22.8252 107.402 21.3721C106.67 19.9219 105.937 19.2539 104.854 19.0078C99.5215 17.8008 93.8086 17.0596 88.0664 16.6523C90.5859 21.6738 90.5273 26.8975 90.5859 31.2012C90.9082 34.3652 85.5469 36.1816 85.3125 31.2598C85.2246 25.7783 85.3711 20.8711 81.5918 16.3242C79.834 16.2656 78.0762 16.2393 76.2891 16.2363ZM102.891 25.4707C106.23 38.291 108.926 60.4687 110.83 73.5351C110.566 78.6914 106.67 77.4609 105.615 74.2969C103.711 61.1133 100.898 38.8184 97.793 26.8096C100.693 29.0654 102.48 28.8311 102.891 25.4707ZM65.625 31.3477C66.6504 47.4609 66.3281 63.3105 65.4199 78.9551C65.4785 82.1777 60.9375 83.0859 60.1465 78.6621C61.0547 63.1348 61.3769 47.5195 60.3516 31.6992C62.959 35.5957 64.5117 34.4238 65.625 31.3477ZM80.7129 37.9395C81.6504 45.9961 81.9726 50.5078 81.8555 55.4883C79.9805 58.2715 78.2519 57.8027 76.582 55.3711C76.6992 50.6836 76.377 46.5234 75.498 38.5254C77.5488 41.0449 79.248 40.459 80.7129 37.9395ZM96.0351 45.9082C97.0312 60.7617 97.2949 72.2754 97.6758 91.2598C96.2109 92.8418 94.8047 94.6875 92.4023 91.377C92.0215 72.3926 91.7578 60.9961 90.7617 46.2598C92.959 48.9844 94.5996 48.0176 96.0351 45.9082ZM23.9648 98.8769C20.8213 98.7891 19.2305 104.414 20.0449 107.461C21.123 111.504 30.2344 114.727 30.2344 114.727C30.2344 114.727 29.6484 99.0234 23.9648 98.8769ZM37.8516 98.7598C37.6172 98.9355 37.4707 99.1699 37.3535 99.4336C36.123 102.334 43.9746 106.201 43.9746 106.201C43.9746 106.201 45.7031 101.104 44.1504 99.5215C42.7734 98.1152 39.2871 97.4707 37.8516 98.7598ZM131.455 97.6465C131.309 97.6465 131.191 97.6465 131.074 97.6758C127.646 98.3203 127.002 104.648 128.643 107.9C128.643 107.9 134.15 105.234 134.443 102.627C134.678 100.781 133.271 97.7051 131.455 97.6465ZM140.186 103.652C134.238 103.975 135.264 120.82 135.264 120.82C135.264 120.82 143.379 117.744 144.404 114.111C145.43 110.508 143.936 103.447 140.186 103.652ZM57.334 108.721C55.4297 110.449 53.5254 112.998 51.8555 115.605C48.5742 120.82 46.3477 126.152 46.3477 126.152L45.293 128.701C38.8477 125.449 34.4824 123.779 28.3535 123.545C24.4248 123.398 21.0996 126.914 20.3174 130.107C19.9043 131.982 20.3174 134.297 22.9805 137.607C58.3008 141.943 114.053 143.789 143.408 137.725C144.434 132.92 142.734 129.609 139.6 126.621C136.172 123.311 130.869 120.879 126.416 119.443C124.277 118.74 119.121 119.795 114.873 121.465C110.596 123.164 107.139 125.127 107.139 125.127L104.971 126.357L103.623 124.307C103.623 124.307 102.217 122.168 100.312 120.088C98.3789 118.008 95.7715 116.367 95.127 116.367C93.1934 116.338 89.0625 119.062 85.8984 122.314C82.7637 125.537 80.4492 128.818 80.4492 128.818L77.2266 133.359L75.7324 127.998C75.7324 127.998 74.1797 122.402 71.5137 116.836C70.1953 114.023 68.584 111.27 66.9141 109.307C63.1934 105.381 60.9668 105.498 57.334 108.721ZM10.4238 112.5C9.17285 112.471 8.08594 112.852 7.53809 113.818C5.11523 118.037 16.5557 125.332 16.5557 125.332C16.5557 125.332 18.5713 117.568 16.2656 114.99C15.0381 113.643 12.5068 112.529 10.4238 112.5Z" fill="#699BF7"/>
</svg>